<svg xmlns="http://www.w3.org/2000/svg" width="13" height="19" viewBox="0 0 13 19" fill="none">
  <path d="M12.3623 5.7987C12.6817 5.55322 12.9022 5.20993 12.9761 4.81676C13.0499 4.42359 12.9511 4.03141 12.7056 3.71208C12.2147 3.04947 11.2816 2.90178 10.619 3.3688L7.79691 5.40556C7.60033 5.55323 7.35484 5.62611 7.10935 5.62611H5.88193C5.63644 5.62611 5.4159 5.55228 5.19437 5.40556L2.37129 3.36784C1.70868 2.87687 0.775642 3.04851 0.284672 3.71112C0.0391873 4.03045 -0.0346543 4.42264 0.0142463 4.81581C0.0880833 5.20898 0.284673 5.55226 0.627959 5.79775L3.86811 8.12985V11.2235C3.86811 11.4939 3.79428 11.7633 3.67154 12.0088L1.38833 16.3298C1.19175 16.723 1.16778 17.1641 1.31449 17.5822C1.48614 17.9993 1.80546 18.3187 2.22259 18.4414C2.91014 18.662 3.6955 18.3436 4.03879 17.68L6.4956 13.0897L8.92551 17.68C9.19594 18.2199 9.75977 18.5143 10.3006 18.5143C10.4483 18.5143 10.595 18.4893 10.7427 18.4404C11.1598 18.2928 11.5041 17.9744 11.6508 17.5812C11.8224 17.1641 11.7985 16.722 11.5769 16.3289L9.31868 12.0339C9.19594 11.7884 9.1221 11.5179 9.1221 11.2485V8.13109L12.3623 5.7987ZM8.65601 12.377L10.9392 16.698C11.037 16.8946 11.062 17.1151 10.9641 17.3366C10.8903 17.5572 10.7187 17.7049 10.4981 17.7787C10.1548 17.9015 9.76166 17.7049 9.56508 17.3616L6.81491 12.1315C6.74107 12.0088 6.61833 11.9349 6.49558 11.9349C6.37283 11.9349 6.22515 12.0088 6.17625 12.1315L3.40203 17.3365C3.20545 17.7048 2.81326 17.8764 2.46899 17.7537C2.24843 17.6798 2.07582 17.5331 2.00296 17.3116C1.92912 17.115 1.92912 16.8695 2.02789 16.673L4.3111 12.3519C4.48275 12.0086 4.58152 11.6155 4.58152 11.2223L4.58056 7.95809C4.58056 7.83535 4.53166 7.73753 4.43289 7.6637L1.04495 5.23379C0.873305 5.11105 0.774527 4.93941 0.750567 4.74282C0.725636 4.54624 0.775499 4.34965 0.87331 4.17801C1.11879 3.83473 1.58482 3.76088 1.92909 4.00636L4.77721 6.01914C5.09654 6.26463 5.48872 6.38737 5.88189 6.38737H7.10932C7.50248 6.38737 7.89467 6.26463 8.214 6.01914L11.0371 3.98142C11.3804 3.73594 11.8474 3.80977 12.0929 4.15307C12.2156 4.32472 12.2645 4.5213 12.2156 4.71788C12.1907 4.91446 12.0679 5.08611 11.9212 5.20885L8.53328 7.63876C8.43546 7.7126 8.3856 7.81041 8.3856 7.93315V11.2222C8.3856 11.6402 8.48437 12.0334 8.65603 12.3767L8.65601 12.377Z" fill="white"/>
  <path d="M8.80311 2.68009C8.80311 1.40377 7.77227 0.372925 6.49595 0.372925C5.21962 0.372925 4.18878 1.40377 4.18878 2.68009C4.18878 3.95642 5.21962 4.98726 6.49595 4.98726C7.77227 4.98822 8.80311 3.93243 8.80311 2.68009ZM4.92519 2.68009C4.92519 1.82089 5.6367 1.10938 6.4959 1.10938C7.3551 1.10938 8.06661 1.82089 8.06661 2.68009C8.06661 3.53929 7.3551 4.2508 6.4959 4.2508C5.6367 4.25176 4.92519 3.53929 4.92519 2.68009Z" fill="white"/>
</svg>