<svg xmlns="http://www.w3.org/2000/svg" width="15" height="10" viewBox="0 0 15 10" fill="none">
  <path d="M14.7914 4.99957C14.7914 4.68827 14.6533 4.39947 14.5226 4.18261C14.3815 3.9486 14.1918 3.707 13.9837 3.47143C13.5662 2.99887 13.0215 2.49139 12.4928 2.03233C11.9611 1.57058 11.4312 1.1454 11.0353 0.836422C10.8371 0.681674 10.6717 0.555478 10.5555 0.467718C10.4974 0.423827 10.4516 0.389517 10.42 0.366022L10.3837 0.339034L10.3741 0.331906L10.3708 0.32944C10.0928 0.124721 9.70122 0.183797 9.49651 0.461715C9.2918 0.739621 9.35112 1.13085 9.62901 1.33558L9.63962 1.34342L9.67299 1.36823C9.70251 1.39023 9.74619 1.42293 9.80202 1.46511C9.91372 1.54949 10.0738 1.67165 10.2662 1.82179C10.6516 2.1226 11.1633 2.53335 11.6732 2.97614C12.1863 3.42163 12.6832 3.88732 13.0469 4.29905C13.0699 4.32509 13.0922 4.35068 13.1137 4.37581L0.833008 4.37582C0.48783 4.37582 0.208008 4.65564 0.208008 5.00082C0.208008 5.34599 0.48783 5.62582 0.833008 5.62582L13.1116 5.62581C13.0907 5.65015 13.0692 5.67492 13.0469 5.70011C12.6832 6.11184 12.1863 6.57753 11.6732 7.02302C11.1633 7.46582 10.6516 7.87656 10.2662 8.17737C10.0738 8.32751 9.91372 8.44968 9.80202 8.53405C9.74619 8.57623 9.70251 8.60893 9.67299 8.63093L9.63962 8.65574L9.62901 8.66358C9.35112 8.86831 9.2918 9.25954 9.49651 9.53745C9.70123 9.81537 10.0928 9.87444 10.3708 9.66972L10.3741 9.66726L10.3837 9.66013L10.42 9.63314C10.4516 9.60965 10.4974 9.57534 10.5555 9.53144C10.6717 9.44368 10.8371 9.31749 11.0353 9.16274C11.4312 8.85376 11.9611 8.42859 12.4928 7.96683C13.0215 7.50778 13.5662 7.00029 13.9837 6.52773C14.1918 6.29217 14.3815 6.05056 14.5226 5.81655C14.6525 5.60099 14.7897 5.31434 14.7913 5.00518" fill="white"/>
</svg>