<svg xmlns="http://www.w3.org/2000/svg" width="22" height="22" viewBox="0 0 22 22" fill="none">
  <path d="M10.0227 9.03781C10.3198 8.74911 10.3265 8.27428 10.0378 7.97726C9.74911 7.68023 9.27428 7.67349 8.97726 7.96219C8.886 8.05089 8.70419 8.19651 8.43276 8.40971L8.37284 8.45675C8.13071 8.64682 7.84661 8.86981 7.57551 9.09954C7.28495 9.34574 6.98316 9.62131 6.74854 9.89679C6.63096 10.0348 6.51499 10.1904 6.42541 10.3578C6.33902 10.5193 6.25 10.7417 6.25 11C6.25 11.2583 6.33902 11.4807 6.42541 11.6422C6.51499 11.8096 6.63096 11.9652 6.74854 12.1032C6.98316 12.3787 7.28495 12.6543 7.57551 12.9005C7.84662 13.1302 8.13068 13.3532 8.37282 13.5432L8.43276 13.5903C8.70419 13.8035 8.886 13.9491 8.97726 14.0378C9.27428 14.3265 9.74911 14.3198 10.0378 14.0227C10.3265 13.7257 10.3198 13.2509 10.0227 12.9622C9.86115 12.8051 9.60404 12.6029 9.35931 12.4107L9.30235 12.3659C9.05663 12.173 8.79386 11.9667 8.54522 11.7561L8.53807 11.75H15C15.4142 11.75 15.75 11.4142 15.75 11C15.75 10.5858 15.4142 10.25 15 10.25H8.53807L8.54522 10.2439C8.79385 10.0333 9.05661 9.82698 9.30233 9.63407L9.35931 9.58933C9.60404 9.39711 9.86115 9.19487 10.0227 9.03781Z" fill="white"/>
  <path fill-rule="evenodd" clip-rule="evenodd" d="M11.0572 0.75H10.9428C8.75212 0.749987 7.03144 0.749976 5.68802 0.930594C4.31137 1.11568 3.21911 1.50272 2.36091 2.36091C1.50272 3.21911 1.11568 4.31137 0.930594 5.68802C0.749976 7.03144 0.749987 8.75212 0.75 10.9428V11.0572C0.749987 13.2479 0.749976 14.9686 0.930594 16.312C1.11568 17.6886 1.50272 18.7809 2.36091 19.6391C3.21911 20.4973 4.31137 20.8843 5.68802 21.0694C7.03144 21.25 8.7521 21.25 10.9428 21.25H11.0572C13.2479 21.25 14.9686 21.25 16.312 21.0694C17.6886 20.8843 18.7809 20.4973 19.6391 19.6391C20.4973 18.7809 20.8843 17.6886 21.0694 16.312C21.25 14.9686 21.25 13.2479 21.25 11.0572V10.9428C21.25 8.75214 21.25 7.03144 21.0694 5.68802C20.8843 4.31137 20.4973 3.21911 19.6391 2.36091C18.7809 1.50272 17.6886 1.11568 16.312 0.930594C14.9686 0.749976 13.2479 0.749987 11.0572 0.75ZM3.42157 3.42157C3.95462 2.88853 4.67757 2.57994 5.8879 2.41722C7.11979 2.25159 8.73963 2.25 11 2.25C13.2604 2.25 14.8802 2.25159 16.1121 2.41722C17.3224 2.57994 18.0454 2.88853 18.5784 3.42157C19.1115 3.95462 19.4201 4.67757 19.5828 5.8879C19.7484 7.11979 19.75 8.73963 19.75 11C19.75 13.2604 19.7484 14.8802 19.5828 16.1121C19.4201 17.3224 19.1115 18.0454 18.5784 18.5784C18.0454 19.1115 17.3224 19.4201 16.1121 19.5828C14.8802 19.7484 13.2604 19.75 11 19.75C8.73963 19.75 7.11979 19.7484 5.8879 19.5828C4.67757 19.4201 3.95462 19.1115 3.42157 18.5784C2.88853 18.0454 2.57994 17.3224 2.41722 16.1121C2.25159 14.8802 2.25 13.2604 2.25 11C2.25 8.73963 2.25159 7.11979 2.41722 5.8879C2.57994 4.67757 2.88853 3.95462 3.42157 3.42157Z" fill="white"/>
</svg>