<svg xmlns="http://www.w3.org/2000/svg" width="17" height="17" viewBox="0 0 17 17" fill="none">
  <path d="M3.29032 17H15.0806C15.5897 17 16.0779 16.7978 16.4378 16.4378C16.7978 16.0779 17 15.5897 17 15.0806V12.8871C17 12.3781 16.7978 11.8899 16.4378 11.5299C16.0779 11.17 15.5897 10.9677 15.0806 10.9677H14.8065V8.22581H16.1774C16.3956 8.22581 16.6048 8.13914 16.7591 7.98488C16.9133 7.83061 17 7.62139 17 7.40323C17 7.18506 16.9133 6.97584 16.7591 6.82157C16.6048 6.66731 16.3956 6.58065 16.1774 6.58065H14.8065V3.83871H16.1774C16.3956 3.83871 16.6048 3.75204 16.7591 3.59778C16.9133 3.44352 17 3.23429 17 3.01613C17 2.79797 16.9133 2.58874 16.7591 2.43448C16.6048 2.28021 16.3956 2.19355 16.1774 2.19355H14.8065V0.822581C14.8065 0.604419 14.7198 0.395192 14.5655 0.240928C14.4113 0.0866644 14.202 0 13.9839 0C13.7657 0 13.5565 0.0866644 13.4022 0.240928C13.248 0.395192 13.1613 0.604419 13.1613 0.822581V2.19355H10.4194V0.822581C10.4194 0.604419 10.3327 0.395192 10.1784 0.240928C10.0242 0.0866644 9.81494 0 9.59677 0C9.37861 0 9.16939 0.0866644 9.01512 0.240928C8.86086 0.395192 8.77419 0.604419 8.77419 0.822581V2.19355H6.03226V1.91935C6.03226 1.41031 5.83004 0.922115 5.47009 0.562166C5.11014 0.202217 4.62195 0 4.1129 0H1.91935C1.41031 0 0.922115 0.202217 0.562166 0.562166C0.202217 0.922115 0 1.41031 0 1.91935V13.7097C0 14.5823 0.346658 15.4192 0.963713 16.0363C1.58077 16.6533 2.41767 17 3.29032 17ZM10.4194 3.83871H13.1613V6.58065H10.4194V3.83871ZM10.4194 8.22581H13.1613V10.9677H10.4194V8.22581ZM6.03226 3.83871H8.77419V6.58065H6.03226V3.83871ZM6.03226 8.22581H8.77419V10.9677H6.03226V8.22581ZM1.64516 1.64516H4.3871V11.7903C4.3871 12.0085 4.47376 12.2177 4.62803 12.372C4.78229 12.5262 4.99152 12.6129 5.20968 12.6129H15.3548V15.3548H3.56452C3.05547 15.3548 2.56728 15.1526 2.20733 14.7927C1.84738 14.4327 1.64516 13.9445 1.64516 13.4355V1.64516Z" fill="#067647"/>
</svg>