<svg xmlns="http://www.w3.org/2000/svg" width="21" height="21" viewBox="0 0 21 21" fill="none">
  <path d="M10.5 0C4.70995 0 0 4.70995 0 10.5C0 16.2901 4.70995 21 10.5 21C16.2901 21 21 16.2901 21 10.5C21 4.70995 16.2901 0 10.5 0ZM10.5 19.9999C5.26163 19.9999 1.0001 15.7382 1.0001 10.5C1.0001 5.26184 5.26184 1.0001 10.5 1.0001C15.7382 1.0001 19.9999 5.26184 19.9999 10.5C19.9999 15.7382 15.7382 19.9999 10.5 19.9999Z" fill="#1B8354"/>
  <path d="M11 10.6914V6.49732C11 6.22148 10.7758 5.99731 10.5 5.99731C10.2242 5.99731 10 6.22148 10 6.49732V10.8982C10 11.0307 10.0525 11.1582 10.1467 11.2515L13.7509 14.8557C13.8484 14.9532 13.9767 15.0024 14.1042 15.0024C14.2326 15.0024 14.3601 14.9541 14.4576 14.8557C14.6526 14.6607 14.6526 14.3441 14.4576 14.1491L11 10.6914Z" fill="#1B8354"/>
</svg>