<svg xmlns="http://www.w3.org/2000/svg" width="13" height="14" viewBox="0 0 13 14" fill="none">
  <path d="M3.34302 7C3.34302 6.6789 3.60333 6.41861 3.92442 6.41861H3.92964C4.25073 6.41861 4.51103 6.6789 4.51103 7C4.51103 7.32111 4.25073 7.5814 3.92964 7.5814H3.92442C3.60333 7.5814 3.34302 7.32111 3.34302 7Z" fill="#161616"/>
  <path d="M5.666 7C5.666 6.6789 5.92628 6.41861 6.24739 6.41861H6.25262C6.57373 6.41861 6.83402 6.6789 6.83402 7C6.83402 7.32111 6.57373 7.5814 6.25262 7.5814H6.24739C5.92628 7.5814 5.666 7.32111 5.666 7Z" fill="#161616"/>
  <path d="M8.57035 6.41861C8.24925 6.41861 7.98896 6.6789 7.98896 7C7.98896 7.32111 8.24925 7.5814 8.57035 7.5814H8.57558C8.89669 7.5814 9.15698 7.32111 9.15698 7C9.15698 6.6789 8.89669 6.41861 8.57558 6.41861H8.57035Z" fill="#161616"/>
  <path fill-rule="evenodd" clip-rule="evenodd" d="M0 6.74808C0 3.41766 2.817 0.75 6.25 0.75C9.68303 0.75 12.5 3.41766 12.5 6.74808C12.5 10.0785 9.68303 12.7462 6.25 12.7462C5.84541 12.7467 5.44207 12.7092 5.04476 12.6347C4.90686 12.6087 4.81924 12.5924 4.75405 12.5835C4.72582 12.5796 4.70831 12.5781 4.69876 12.5776L4.70712 12.5744C4.70712 12.5744 4.70358 12.5752 4.69754 12.5762L4.6927 12.5768C4.6942 12.5769 4.69603 12.5774 4.69876 12.5776C4.68889 12.5813 4.66973 12.5891 4.63823 12.6041C4.57164 12.6358 4.48295 12.6828 4.34718 12.755C3.51478 13.1977 2.54363 13.3547 1.60695 13.1804C1.4557 13.1523 1.33047 13.0465 1.2774 12.9022C1.22434 12.7577 1.2513 12.5961 1.34836 12.4767C1.62033 12.1422 1.80734 11.7391 1.89005 11.3054C1.91243 11.186 1.86179 11.024 1.70611 10.8659C0.651 9.79448 0 8.34558 0 6.74808ZM6.25 1.62209C3.26182 1.62209 0.872093 3.93532 0.872093 6.74808C0.872093 8.10221 1.42265 9.33518 2.32748 10.254C2.60319 10.534 2.84072 10.9705 2.74696 11.4673L2.74682 11.4681C2.68642 11.7852 2.58363 12.0911 2.44215 12.377C2.96183 12.3647 3.47634 12.2304 3.9377 11.985L3.94669 11.9802L3.94864 11.9792C4.07221 11.9135 4.17787 11.8573 4.26408 11.8163C4.34791 11.7765 4.45256 11.7314 4.56587 11.7141C4.67619 11.6972 4.78338 11.7072 4.87259 11.7195C4.96172 11.7317 5.07076 11.7522 5.1955 11.7756L5.20573 11.7775C5.5499 11.8422 5.89919 11.8745 6.24942 11.8741C9.23762 11.8741 11.6279 9.56087 11.6279 6.74808C11.6279 3.93532 9.2382 1.62209 6.25 1.62209Z" fill="#161616"/>
</svg>