<svg width="18" height="16" viewBox="0 0 18 16" fill="none" xmlns="http://www.w3.org/2000/svg">
<g id="elements">
<g id="Icon">
<path d="M0.25 1C0.25 0.585786 0.585786 0.25 1 0.25H17C17.4142 0.25 17.75 0.585788 17.75 1C17.75 1.41422 17.4142 1.75 17 1.75L1 1.75C0.585786 1.75 0.25 1.41421 0.25 1Z" fill="white"/>
<path d="M0.25 8C0.25 7.58579 0.585786 7.25 1 7.25L17 7.25C17.4142 7.25 17.75 7.58579 17.75 8C17.75 8.41422 17.4142 8.75 17 8.75L1 8.75C0.585786 8.75 0.25 8.41421 0.25 8Z" fill="white"/>
<path d="M1 14.25C0.585786 14.25 0.25 14.5858 0.25 15C0.25 15.4142 0.585786 15.75 1 15.75L17 15.75C17.4142 15.75 17.75 15.4142 17.75 15C17.75 14.5858 17.4142 14.25 17 14.25L1 14.25Z" fill="white"/>
</g>
</g>
</svg>
