<svg xmlns="http://www.w3.org/2000/svg" width="12" height="14" viewBox="0 0 12 14" fill="none">
  <path fill-rule="evenodd" clip-rule="evenodd" d="M3.375 0.729126C2.49288 0.729126 1.76876 1.34742 1.55677 2.16635C0.828836 2.39114 0.3125 3.08604 0.3125 3.88885C0.3125 4.86706 1.08114 5.68746 2.0625 5.68746H4.81875C5.72762 5.68746 6.4375 4.928 6.4375 4.02496C6.4375 3.26687 5.93432 2.61337 5.23915 2.42027C5.11971 1.51616 4.37138 0.729126 3.375 0.729126ZM2.37262 2.57006C2.41858 2.01559 2.86245 1.60413 3.375 1.60413C3.95391 1.60413 4.43005 2.15167 4.37701 2.7621C4.36639 2.88425 4.40752 3.00526 4.49039 3.09564C4.57326 3.18602 4.69025 3.23747 4.81286 3.23747C5.21155 3.23747 5.5625 3.57778 5.5625 4.02496C5.5625 4.47502 5.21465 4.81246 4.81875 4.81246H2.0625C1.59411 4.81246 1.1875 4.41408 1.1875 3.88885C1.1875 3.39536 1.54823 3.01187 1.97958 2.9693C2.18979 2.94856 2.35517 2.78057 2.37262 2.57006Z" fill="#161616"/>
  <path fill-rule="evenodd" clip-rule="evenodd" d="M4.94534 13.2708C3.84581 13.2708 3.29449 13.2708 2.80392 13.0993C2.00884 12.8199 1.38117 12.229 1.08309 11.4771C0.895838 11.0051 0.895833 10.4819 0.895833 9.43948V6.9004C0.895833 6.6589 1.09183 6.4629 1.33333 6.4629C1.57483 6.4629 1.77083 6.6589 1.77083 6.9004V9.43948C1.77083 10.3705 1.77083 10.8377 1.89625 11.1539C2.101 11.6701 2.53734 12.0785 3.09325 12.2733C3.44267 12.3958 3.94492 12.3958 4.94534 12.3958C5.12591 12.3958 5.29776 12.3958 5.46084 12.3956C6.27907 12.3811 6.9405 11.7107 6.9405 10.8891C6.9405 10.7955 6.93584 10.6948 6.9309 10.5882L6.92985 10.5654C6.9153 10.2477 6.89883 9.88802 6.98834 9.55208C7.11784 9.06674 7.50051 8.68465 7.98584 8.55457C8.32179 8.46506 8.68148 8.48153 8.99914 8.49608L9.02192 8.49713C9.12851 8.50207 9.22931 8.50673 9.32284 8.50673C10.1458 8.50673 10.817 7.8432 10.8294 7.02317L10.8294 5.40924C10.8294 3.72283 10.8294 2.87641 10.4293 2.37416C10.3132 2.22832 10.1755 2.09882 10.0203 1.99032C9.47143 1.60416 8.56262 1.60416 6.75144 1.60416H6.2992C6.0577 1.60416 5.8617 1.40816 5.8617 1.16666C5.8617 0.925159 6.0577 0.729159 6.2992 0.729159H6.75133C8.74685 0.729159 9.74851 0.729159 10.5238 1.27457C10.7466 1.4309 10.9455 1.61757 11.1141 1.82932C11.7044 2.57073 11.7044 3.51924 11.7044 5.40924L11.7044 6.98758L11.7046 6.99999C11.7046 7.00974 11.7045 7.01948 11.7044 7.02921C11.7042 8.7217 11.6966 9.58985 11.3993 10.3384C10.9123 11.5663 9.88617 12.5323 8.58417 12.9891C7.85732 13.2435 7.0149 13.2682 5.46907 13.2706C5.45732 13.2707 5.44555 13.2708 5.43376 13.2708C5.4294 13.2708 5.42506 13.2707 5.42074 13.2706C5.26915 13.2708 5.11086 13.2708 4.94534 13.2708ZM8.29484 12.1631C8.02246 12.2585 7.71097 12.3148 7.31503 12.348C7.62858 11.9446 7.8155 11.4382 7.8155 10.8891C7.8155 10.7778 7.81045 10.6639 7.80552 10.5527L7.80442 10.528L7.80434 10.5261C7.79211 10.2595 7.77947 9.98383 7.83417 9.7784C7.88317 9.59465 8.02842 9.4494 8.21217 9.4004C8.4153 9.34558 8.68865 9.35812 8.95315 9.37026L8.96176 9.37065L8.98656 9.37175C9.09773 9.37668 9.21155 9.38173 9.32284 9.38173C9.87935 9.38173 10.392 9.18978 10.7979 8.86861C10.7672 9.35471 10.7064 9.71259 10.5862 10.0152C10.1924 11.0081 9.35709 11.7903 8.29484 12.1631Z" fill="#161616"/>
</svg>