<svg xmlns="http://www.w3.org/2000/svg" width="13" height="18" viewBox="0 0 13 18" fill="none">
  <path fill-rule="evenodd" clip-rule="evenodd" d="M3.17467 5.4848C3.17467 2.69662 5.56761 0.497803 8.44127 0.497803H11.1015C11.3069 0.497803 11.51 0.507173 11.6938 0.545132C11.8823 0.584074 12.0901 0.660958 12.2652 0.825555C12.6098 1.1496 12.6294 1.62729 12.6294 1.96974V3.72727C12.6294 4.06971 12.6098 4.5474 12.2652 4.87145C12.0901 5.03605 11.8823 5.11293 11.6938 5.15187C11.51 5.18983 11.3069 5.1992 11.1015 5.1992H8.44127C8.21765 5.1992 8.09975 5.36101 8.09975 5.4848V7.08855H10.0062C10.2693 7.08855 10.5205 7.10156 10.7382 7.15006C10.9557 7.19849 11.2125 7.29823 11.3985 7.53004C11.5893 7.76793 11.6258 8.0443 11.6147 8.27251C11.6039 8.49478 11.5453 8.73467 11.4725 8.97437L11.0719 10.2925C10.9895 10.5637 10.8662 10.9025 10.5576 11.1214C10.258 11.3339 9.89727 11.3506 9.60561 11.3506H8.09975V16.03C8.09975 16.3724 8.08021 16.8501 7.73554 17.1742C7.56046 17.3388 7.35271 17.4157 7.16416 17.4546C6.98037 17.4926 6.77721 17.5019 6.5719 17.5019H4.70252C4.49721 17.5019 4.29405 17.4926 4.11027 17.4546C3.92172 17.4157 3.71396 17.3388 3.53889 17.1742C3.19422 16.8501 3.17467 16.3724 3.17467 16.03V11.3506H1.89846C1.69315 11.3506 1.48999 11.3412 1.3062 11.3032C1.11765 11.2643 0.909896 11.1874 0.734824 11.0228C0.390154 10.6988 0.370605 10.2211 0.370605 9.87863V8.56048C0.370605 8.21804 0.390155 7.74035 0.734824 7.4163C0.909896 7.25171 1.11766 7.17482 1.3062 7.13588C1.48999 7.09792 1.69315 7.08855 1.89846 7.08855H3.17467V5.4848ZM8.44127 1.68414C6.1528 1.68414 4.361 3.4197 4.361 5.4848V7.68172C4.361 8.00931 4.09543 8.27489 3.76784 8.27489H1.89846C1.73877 8.27489 1.63673 8.28233 1.57096 8.29313C1.56295 8.34754 1.55694 8.43151 1.55694 8.56048V9.87863C1.55694 10.0076 1.56295 10.0916 1.57096 10.146C1.63673 10.1568 1.73877 10.1642 1.89846 10.1642H3.76784C4.09543 10.1642 4.361 10.4298 4.361 10.7574V16.03C4.361 16.159 4.36702 16.2429 4.37504 16.2974C4.4408 16.3082 4.54284 16.3156 4.70252 16.3156H6.5719C6.73158 16.3156 6.83363 16.3082 6.8994 16.2974C6.90741 16.2429 6.91342 16.159 6.91342 16.03V10.7574C6.91342 10.4298 7.17899 10.1642 7.50659 10.1642H9.60561C9.73964 10.1642 9.81679 10.1576 9.86295 10.1491C9.88025 10.1145 9.90443 10.0541 9.9368 9.94758L10.3374 8.62943C10.3828 8.47998 10.408 8.37291 10.4204 8.29706C10.33 8.28354 10.1978 8.27489 10.0062 8.27489H7.50659C7.17899 8.27489 6.91342 8.00931 6.91342 7.68172V5.4848C6.91342 4.63793 7.63247 4.01287 8.44127 4.01287H11.1015C11.2612 4.01287 11.3633 4.00543 11.429 3.99463C11.4371 3.94021 11.4431 3.85625 11.4431 3.72727V1.96974C11.4431 1.84076 11.4371 1.75679 11.429 1.70238C11.3633 1.69158 11.2612 1.68414 11.1015 1.68414H8.44127Z" fill="white"/>
</svg>