<svg xmlns="http://www.w3.org/2000/svg" width="21" height="17" viewBox="0 0 21 17" fill="none">
  <path d="M15.6516 1.91025C16.5296 1.91025 17.339 2.22861 17.9797 2.83299C19.2624 4.04301 19.2624 6.01659 17.9797 7.22667L16.5625 8.53246L10.4878 14.2629L4.41307 8.53246L2.99591 7.22667C1.7132 6.01665 1.7132 4.04307 2.99591 2.83299C3.60365 2.25969 4.44736 1.91025 5.32401 1.91025C6.20201 1.91025 7.04572 2.22861 7.65211 2.83299L10.4864 5.5067L13.3208 2.83299C13.9298 2.25969 14.7736 1.91025 15.6516 1.91025ZM15.6515 9.59413e-05C14.3015 9.59413e-05 12.9173 0.477635 11.872 1.46506L10.4878 2.80192L9.07062 1.49613C8.02388 0.508707 6.67395 0.0311675 5.29114 0.0311675C3.9412 0.0311675 2.59127 0.508707 1.54439 1.49613C-0.514798 3.46971 -0.514798 6.62236 1.54439 8.59587L2.92862 9.93273L10.4876 17L19.4309 8.56347C21.523 6.58989 21.523 3.43724 19.4309 1.46372C18.3512 0.508643 17.0014 9.59413e-05 15.6515 9.59413e-05Z" fill="#067647"/>
</svg>