<svg xmlns="http://www.w3.org/2000/svg" width="17" height="16" viewBox="0 0 17 16" fill="none">
  <path fill-rule="evenodd" clip-rule="evenodd" d="M4.14634 8C4.14634 5.73698 6.09554 3.90244 8.5 3.90244C10.9045 3.90244 12.8537 5.73698 12.8537 8C12.8537 10.263 10.9045 12.0976 8.5 12.0976C6.09554 12.0976 4.14634 10.263 4.14634 8ZM8.5 5.07317C6.78253 5.07317 5.39024 6.38356 5.39024 8C5.39024 9.61644 6.78253 10.9268 8.5 10.9268C10.2175 10.9268 11.6098 9.61644 11.6098 8C11.6098 6.38356 10.2175 5.07317 8.5 5.07317Z" fill="white"/>
  <path d="M13.0675 4.4878C13.5254 4.4878 13.8967 4.13837 13.8967 3.70732C13.8967 3.27627 13.5254 2.92683 13.0675 2.92683H13.06C12.602 2.92683 12.2307 3.27627 12.2307 3.70732C12.2307 4.13837 12.602 4.4878 13.06 4.4878H13.0675Z" fill="white"/>
  <path fill-rule="evenodd" clip-rule="evenodd" d="M8.54741 1.78527e-07C10.3641 -1.02421e-05 11.791 -1.76895e-05 12.9051 0.140951C14.0467 0.285409 14.9524 0.587484 15.6641 1.2573C16.3758 1.92711 16.6968 2.7796 16.8502 3.85407C17 4.90258 17 6.24554 17 7.95535V8.04462C17 9.75443 17 11.0974 16.8502 12.1459C16.6968 13.2204 16.3758 14.0729 15.6641 14.7427C14.9524 15.4125 14.0467 15.7146 12.9051 15.859C11.791 16 10.3641 16 8.54743 16H8.45259C6.63592 16 5.20899 16 4.09495 15.859C2.95333 15.7146 2.04756 15.4125 1.33588 14.7427C0.624203 14.0729 0.303247 13.2204 0.149761 12.1459C-1.96848e-05 11.0974 -1.08847e-05 9.75444 1.89948e-07 8.04462V7.95538C-1.08847e-05 6.24556 -1.96848e-05 4.90259 0.149761 3.85407C0.303247 2.7796 0.624203 1.92711 1.33588 1.2573C2.04756 0.587484 2.95333 0.285409 4.09495 0.140951C5.20899 -1.76895e-05 6.63589 -1.02421e-05 8.45256 1.78527e-07H8.54741ZM4.26069 1.30124C3.25701 1.42825 2.65749 1.6691 2.21545 2.08513C1.77341 2.50117 1.51751 3.06542 1.38257 4.01006C1.24522 4.97155 1.2439 6.23581 1.2439 8C1.2439 9.76419 1.24522 11.0285 1.38257 11.9899C1.51751 12.9346 1.77341 13.4988 2.21545 13.9149C2.65749 14.3309 3.25701 14.5718 4.26069 14.6988C5.28227 14.828 6.62554 14.8293 8.5 14.8293C10.3745 14.8293 11.7177 14.828 12.7393 14.6988C13.743 14.5718 14.3425 14.3309 14.7845 13.9149C15.2266 13.4988 15.4825 12.9346 15.6174 11.9899C15.7548 11.0285 15.7561 9.76419 15.7561 8C15.7561 6.23581 15.7548 4.97155 15.6174 4.01006C15.4825 3.06542 15.2266 2.50117 14.7845 2.08513C14.3425 1.6691 13.743 1.42825 12.7393 1.30124C11.7177 1.17197 10.3745 1.17073 8.5 1.17073C6.62554 1.17073 5.28227 1.17197 4.26069 1.30124Z" fill="white"/>
</svg>