<svg xmlns="http://www.w3.org/2000/svg" width="15" height="14" viewBox="0 0 15 14" fill="none">
  <path d="M3.75 9.5C3.40482 9.5 3.125 9.77982 3.125 10.125C3.125 10.4702 3.40482 10.75 3.75 10.75H3.75561C4.10079 10.75 4.38061 10.4702 4.38061 10.125C4.38061 9.77982 4.10079 9.5 3.75561 9.5H3.75Z" fill="#161616"/>
  <path d="M10.5097 10.0964C10.4203 9.76296 10.6182 9.42025 10.9516 9.33091L10.957 9.32946C11.2904 9.24012 11.6332 9.43799 11.7225 9.7714C11.8118 10.1048 11.614 10.4475 11.2806 10.5369L11.2751 10.5383C10.9417 10.6277 10.599 10.4298 10.5097 10.0964Z" fill="#161616"/>
  <path fill-rule="evenodd" clip-rule="evenodd" d="M3.76964 0.90625H3.73036C3.30951 0.906245 2.96531 0.906241 2.68558 0.929095C2.39604 0.952751 2.13455 1.00321 1.89033 1.12764C1.50813 1.32239 1.19739 1.63313 1.00264 2.01533C0.878211 2.25954 0.827751 2.52104 0.804095 2.81058C0.781241 3.09031 0.781245 3.4345 0.78125 3.85536V10.1446C0.781245 10.5655 0.781241 10.9097 0.804095 11.1894C0.827751 11.479 0.878211 11.7405 1.00264 11.9847C1.19739 12.3669 1.50813 12.6776 1.89033 12.8724C2.13455 12.9968 2.39604 13.0472 2.68558 13.0709C2.96531 13.0938 3.3095 13.0938 3.73035 13.0938H3.76965C4.19051 13.0938 4.53469 13.0938 4.81442 13.0709C5.10396 13.0472 5.36546 12.9968 5.60967 12.8724C5.99187 12.6776 6.30262 12.3669 6.49736 11.9847C6.62179 11.7405 6.67225 11.479 6.69591 11.1894C6.71876 10.9097 6.71876 10.5655 6.71875 10.1447L6.71875 4.84957L8.29176 10.7446C8.39838 11.1442 8.48568 11.4714 8.5783 11.7316C8.67418 12.0009 8.78857 12.2375 8.96918 12.4389C9.25148 12.7538 9.62605 12.971 10.0394 13.0593C10.304 13.1157 10.5659 13.0969 10.8465 13.0455C11.1173 12.9959 11.4433 12.9082 11.8411 12.8012L11.879 12.791C12.2768 12.684 12.6029 12.5962 12.8621 12.5032C13.1307 12.4068 13.3667 12.2917 13.5674 12.1102C13.881 11.8266 14.0969 11.4509 14.1845 11.0371C14.2406 10.7723 14.2219 10.5102 14.1708 10.2288C14.1215 9.95705 14.0342 9.62991 13.9276 9.23035L12.3332 3.25535C12.2266 2.85575 12.1393 2.52857 12.0467 2.26841C11.9508 1.99907 11.8364 1.76249 11.6558 1.56107C11.3735 1.24623 10.9989 1.02895 10.5856 0.940725C10.321 0.884238 10.0591 0.903117 9.77851 0.954471C9.50763 1.00405 9.18165 1.09176 8.78386 1.1988L8.74592 1.20901C8.34812 1.31604 8.02213 1.40375 7.76288 1.49681C7.49427 1.59323 7.25832 1.7083 7.05755 1.88982C6.88836 2.0428 6.74761 2.2226 6.6401 2.42074C6.60868 2.27965 6.56345 2.14505 6.49736 2.01533C6.30262 1.63313 5.99187 1.32239 5.60967 1.12764C5.36546 1.00321 5.10396 0.952751 4.81442 0.929095C4.53469 0.906241 4.1905 0.906245 3.76964 0.90625ZM1.71875 10.125V4.34375H5.78125V10.125C5.78125 10.5703 5.78089 10.876 5.76152 11.1131C5.7426 11.3446 5.70791 11.469 5.66204 11.5591C5.55718 11.7649 5.38985 11.9322 5.18405 12.037C5.09403 12.0829 4.96964 12.1176 4.73808 12.1365C4.50104 12.1559 4.19528 12.1562 3.75 12.1562C3.30473 12.1562 2.99896 12.1559 2.76192 12.1365C2.53036 12.1176 2.40597 12.0829 2.31595 12.037C2.11015 11.9322 1.94282 11.7649 1.83796 11.5591C1.79209 11.469 1.7574 11.3446 1.73848 11.1131C1.71912 10.876 1.71875 10.5703 1.71875 10.125ZM1.72009 3.40625H5.77991C5.77797 3.1978 5.7732 3.02987 5.76152 2.88692C5.7426 2.65536 5.70791 2.53097 5.66204 2.44095C5.55718 2.23515 5.38986 2.06782 5.18405 1.96296C5.09403 1.91709 4.96964 1.8824 4.73808 1.86348C4.50104 1.84412 4.19528 1.84375 3.75 1.84375C3.30472 1.84375 2.99896 1.84412 2.76192 1.86348C2.53036 1.8824 2.40597 1.91709 2.31595 1.96296C2.11015 2.06782 1.94282 2.23515 1.83796 2.44095C1.79209 2.53097 1.7574 2.65536 1.73848 2.88692C1.7268 3.02987 1.72203 3.1978 1.72009 3.40625ZM9.00847 2.10921C9.42988 1.99582 9.71871 1.91849 9.94729 1.87665C10.1704 1.83581 10.2952 1.83736 10.3899 1.85757C10.6088 1.90429 10.8076 2.01945 10.9578 2.18693C11.023 2.25967 11.087 2.36799 11.1635 2.58282C11.1921 2.66333 11.2207 2.75322 11.251 2.8556L7.46984 4.01912C7.42925 3.85779 7.39819 3.72267 7.37661 3.60375C7.33588 3.37933 7.33729 3.25318 7.35764 3.15706C7.40441 2.93607 7.5196 2.73595 7.6863 2.58522C7.75855 2.51989 7.86606 2.45585 8.07962 2.37918C8.29842 2.30064 8.58707 2.22259 9.00847 2.10921ZM7.70951 4.92625L9.19253 10.4841C9.30543 10.9071 9.3832 11.1972 9.4615 11.4172C9.53798 11.632 9.60195 11.7403 9.66717 11.8131C9.81735 11.9805 10.0162 12.0957 10.2351 12.1424C10.3298 12.1626 10.4545 12.1642 10.6777 12.1233C10.9063 12.0815 11.1951 12.0042 11.6165 11.8908C12.0379 11.7774 12.3266 11.6993 12.5454 11.6208C12.7589 11.5441 12.8664 11.4801 12.9387 11.4148C13.1054 11.264 13.2206 11.0639 13.2673 10.8429C13.2877 10.7468 13.2891 10.6207 13.2484 10.3962C13.2067 10.1664 13.1296 9.87616 13.0167 9.45308L11.4977 3.76056L7.70951 4.92625Z" fill="#161616"/>
</svg>