<svg xmlns="http://www.w3.org/2000/svg" width="17" height="16" viewBox="0 0 17 16" fill="none">
  <path fill-rule="evenodd" clip-rule="evenodd" d="M8.86641 10.5224C8.97054 10.6258 9.10582 10.6774 9.24182 10.6774L9.24254 10.6767C9.37854 10.6767 9.51522 10.625 9.61864 10.5209L12.6879 7.44463C12.6896 7.4425 12.6916 7.44056 12.6935 7.43861C12.6955 7.43667 12.6974 7.43472 12.6992 7.43259L13.1263 7.00476C13.3338 6.79651 13.3332 6.46002 13.1256 6.25319C12.9174 6.04565 12.5816 6.04641 12.3741 6.25395L12.3627 6.26523C11.8733 5.64189 10.9723 4.53407 10.0571 3.61749C9.14125 2.69949 8.03412 1.79429 7.41291 1.30413L7.42564 1.29133C7.63318 1.08308 7.63249 0.747374 7.42495 0.539832C7.2167 0.332291 6.88025 0.332982 6.67342 0.540524L3.16575 4.05597C2.95821 4.26422 2.9589 4.6 3.16644 4.80754C3.37469 5.01508 3.71043 5.01432 3.91797 4.80678L3.92862 4.7962C4.24809 5.20303 4.74315 5.81596 5.30295 6.44788L1.50666 9.68859C1.13266 10.008 0.906697 10.4735 0.886864 10.965C0.867031 11.4566 1.05472 11.939 1.40252 12.2882C1.73402 12.6197 2.18665 12.8067 2.65344 12.8067H2.65417C2.67641 12.8067 2.69863 12.806 2.72087 12.8054L2.72428 12.8053C3.21657 12.7861 3.68124 12.5595 4.00069 12.1841L7.23267 8.3818C7.86292 8.94235 8.47425 9.43788 8.87914 9.75737L8.86569 9.77079C8.65814 9.97904 8.65887 10.3155 8.86641 10.5224ZM6.45262 7.65921C6.3791 7.58789 6.30643 7.5163 6.23493 7.44463C6.16447 7.37395 6.09408 7.30215 6.02397 7.22954L2.19655 10.4968C2.04497 10.6264 1.95643 10.8078 1.94864 11.0083C1.94085 11.2087 2.01383 11.3971 2.1555 11.5388C2.29575 11.679 2.48202 11.7534 2.68177 11.7442C2.88081 11.7364 3.06143 11.6479 3.19106 11.4963L6.45262 7.65921ZM6.98649 6.69452C6.06708 5.77297 5.13562 4.61696 4.68441 4.03896L6.6564 2.06275C7.2344 2.51537 8.38687 3.44824 9.30487 4.36836C10.2236 5.28919 11.155 6.44592 11.6062 7.02392L9.63493 8.99944C9.05764 8.54681 7.90591 7.61535 6.98649 6.69452Z" fill="#161616"/>
  <path d="M15.5828 11.3873C15.4964 11.3873 15.4093 11.366 15.3285 11.3221L13.9119 10.5471C13.6547 10.4062 13.5598 10.0832 13.7008 9.82608C13.8417 9.56896 14.1648 9.47401 14.4219 9.61497L15.8385 10.3899C16.0957 10.5309 16.1906 10.8538 16.0496 11.111C15.9533 11.2873 15.7713 11.3873 15.5828 11.3873Z" fill="#161616"/>
  <path d="M14.1669 8.28968C14.0132 8.28968 13.8609 8.22315 13.7561 8.09565C13.5698 7.86898 13.6031 7.5339 13.8297 7.34761L15.2464 6.18598C15.4731 5.99969 15.8081 6.03299 15.9944 6.25965C16.1806 6.48632 16.1474 6.82133 15.9207 7.00762L14.504 8.16932C14.4056 8.25007 14.2852 8.28968 14.1669 8.28968Z" fill="#161616"/>
  <path fill-rule="evenodd" clip-rule="evenodd" d="M14.875 15.6132C15.1682 15.6132 15.4062 15.3752 15.4062 15.082C15.4062 14.7887 15.1682 14.5507 14.875 14.5507H14.36C14.3422 14.512 14.3243 14.4729 14.306 14.4328L14.2956 14.4097C13.9534 13.6561 13.4356 12.5171 11.9935 12.4384C11.5635 12.4151 11.1272 12.4151 10.6965 12.4384C9.25293 12.5171 8.73657 13.6568 8.39515 14.4104L8.39371 14.4137C8.37294 14.46 8.35218 14.5064 8.33141 14.5507H7.79307C7.49982 14.5507 7.26182 14.7887 7.26182 15.082C7.26182 15.3752 7.49982 15.6132 7.79307 15.6132H14.875ZM13.1892 14.5507H9.503C9.80616 13.9309 10.1093 13.535 10.7553 13.4996C11.147 13.4776 11.5444 13.4776 11.9361 13.4996C12.5821 13.5343 12.886 13.9309 13.1892 14.5507Z" fill="#161616"/>
</svg>