<svg xmlns="http://www.w3.org/2000/svg" width="13" height="14" viewBox="0 0 13 14" fill="none">
  <path d="M10.7188 10.75C10.7188 11.0089 10.5089 11.2188 10.25 11.2188H5.25C4.99112 11.2188 4.78125 11.0089 4.78125 10.75C4.78125 10.4911 4.99112 10.2812 5.25 10.2812H10.25C10.5089 10.2812 10.7188 10.4911 10.7188 10.75Z" fill="#161616"/>
  <path d="M5.25 7.78125C4.99112 7.78125 4.78125 7.99112 4.78125 8.25C4.78125 8.50888 4.99112 8.71875 5.25 8.71875H6.5C6.75888 8.71875 6.96875 8.50888 6.96875 8.25C6.96875 7.99112 6.75888 7.78125 6.5 7.78125H5.25Z" fill="#161616"/>
  <path d="M8.375 7.78125C8.11612 7.78125 7.90625 7.99112 7.90625 8.25C7.90625 8.50888 8.11612 8.71875 8.375 8.71875H10.25C10.5089 8.71875 10.7188 8.50888 10.7188 8.25C10.7188 7.99112 10.5089 7.78125 10.25 7.78125H8.375Z" fill="#161616"/>
  <path fill-rule="evenodd" clip-rule="evenodd" d="M6.46427 0.59375H6.53573C7.90492 0.593742 8.98035 0.593735 9.81999 0.706621C10.6804 0.8223 11.3631 1.0642 11.8994 1.60057C12.4358 2.13694 12.6777 2.8196 12.7934 3.68001C12.9063 4.51965 12.9063 5.59507 12.9062 6.96425V7.03573C12.9063 8.40491 12.9063 9.48035 12.7934 10.32C12.6777 11.1804 12.4358 11.8631 11.8994 12.3994C11.3631 12.9358 10.6804 13.1777 9.81999 13.2934C8.98035 13.4063 7.90493 13.4063 6.53575 13.4062H6.46427C5.09509 13.4063 4.01965 13.4063 3.18001 13.2934C2.3196 13.1777 1.63694 12.9358 1.10057 12.3994C0.564197 11.8631 0.3223 11.1804 0.206621 10.32C0.0937352 9.48035 0.0937418 8.40492 0.0937501 7.03573V6.96427C0.0937418 5.59508 0.0937352 4.51965 0.206621 3.68001C0.3223 2.8196 0.564197 2.13694 1.10057 1.60057C1.63694 1.0642 2.3196 0.8223 3.18001 0.706621C4.01965 0.593735 5.09508 0.593742 6.46427 0.59375ZM3.30493 1.63576C2.54848 1.73746 2.09664 1.93033 1.76348 2.26348C1.43033 2.59664 1.23746 3.04848 1.13576 3.80493C1.03225 4.57487 1.03125 5.58727 1.03125 7C1.03125 8.41273 1.03225 9.42513 1.13576 10.1951C1.23746 10.9515 1.43033 11.4034 1.76348 11.7365C2.09664 12.0697 2.54848 12.2625 3.30493 12.3642C4.07487 12.4678 5.08727 12.4688 6.5 12.4688C7.91273 12.4688 8.92513 12.4678 9.69507 12.3642C10.4515 12.2625 10.9034 12.0697 11.2365 11.7365C11.5697 11.4034 11.7625 10.9515 11.8642 10.1951C11.9678 9.42513 11.9688 8.41273 11.9688 7C11.9688 5.58727 11.9678 4.57487 11.8642 3.80493C11.7625 3.04848 11.5697 2.59664 11.2365 2.26348C10.9034 1.93033 10.4515 1.73746 9.69507 1.63576C8.92513 1.53225 7.91273 1.53125 6.5 1.53125C5.08727 1.53125 4.07487 1.53225 3.30493 1.63576Z" fill="#161616"/>
</svg>