<svg xmlns="http://www.w3.org/2000/svg" width="22" height="22" viewBox="0 0 22 22" fill="none">
  <path d="M12.9067 11.44C13.2733 11.7822 13.4444 12.2467 13.4444 12.8578C13.4444 13.4689 13.2733 13.9333 12.9067 14.2756C12.5889 14.5933 12.1489 14.7889 11.6111 14.8867C11.5133 14.9111 11.44 14.9844 11.44 15.1067V15.5222C11.44 15.7422 11.2689 15.9378 11.0244 15.9378C10.8044 15.9378 10.6089 15.7667 10.6089 15.5222V15.1067C10.6089 15.0089 10.5356 14.9111 10.4378 14.8867C9.9 14.7889 9.46 14.5933 9.09333 14.2511C8.84889 14.0067 8.67778 13.6889 8.58 13.3222C8.48222 12.9311 8.77556 12.5644 9.16667 12.5644H9.19111C9.48444 12.5644 9.72889 12.76 9.77778 13.0289C9.82667 13.2733 9.92444 13.4444 10.0956 13.5911C10.34 13.8111 10.6333 13.9089 11 13.9089C11.3911 13.9089 11.6844 13.8111 11.88 13.64C12.1 13.4689 12.1978 13.2 12.1978 12.8822C12.1978 12.5889 12.1 12.3444 11.9044 12.1489C11.7089 11.9533 11.3911 11.7822 10.9511 11.6356C10.2178 11.3911 9.68 11.0978 9.31333 10.7556C8.94667 10.4133 8.77556 9.92445 8.77556 9.33778C8.77556 8.77556 8.94667 8.31111 9.28889 7.94444C9.60667 7.62667 10.0222 7.40667 10.5356 7.30889C10.6333 7.28444 10.7067 7.21111 10.7067 7.08889V6.55111C10.7067 6.33111 10.8778 6.13556 11.1222 6.13556H11.1467C11.3667 6.13556 11.5622 6.30667 11.5622 6.55111V7.11333C11.5622 7.21111 11.6356 7.30889 11.7333 7.30889C12.2467 7.40667 12.6378 7.65111 12.9556 8.01778C13.1511 8.26222 13.2978 8.58 13.3711 8.92222C13.4444 9.28889 13.1511 9.65556 12.76 9.65556H12.7111C12.4178 9.65556 12.1733 9.46 12.1 9.16667C12.0511 8.94667 11.9778 8.77556 11.8556 8.62889C11.66 8.38444 11.3911 8.23778 11.0733 8.23778C10.7311 8.23778 10.4622 8.33556 10.2911 8.50667C10.12 8.70222 10.0222 8.94667 10.0222 9.26445C10.0222 9.55778 10.12 9.80222 10.2911 9.97333C10.4867 10.1689 10.8044 10.34 11.2933 10.5111C12.0267 10.78 12.5644 11.0978 12.9067 11.44ZM22 11C22 17.0622 17.0622 22 11 22C4.93778 22 0 17.0622 0 11C0 4.93778 4.93778 0 11 0C17.0622 0 22 4.93778 22 11ZM21.0222 11C21.0222 5.47556 16.5244 0.977778 11 0.977778C5.47556 0.977778 0.977778 5.47556 0.977778 11C0.977778 16.5244 5.47556 21.0222 11 21.0222C16.5244 21.0222 21.0222 16.5244 21.0222 11Z" fill="#1B8354"/>
</svg>