<svg xmlns="http://www.w3.org/2000/svg" width="15" height="12" viewBox="0 0 15 12" fill="none">
  <path d="M1.82589 5.43347L1.81973 11.8238H2.95017L2.95793 4.60177L7.07093 1.57932L11.2025 4.61502L11.2086 11.8238H12.3391L12.3314 5.44377L13.4734 6.28377L14.1429 5.37297L7.07093 0.176514L0 5.37297L0.669215 6.28377L1.82589 5.43347Z" fill="#ACACAC"/>
  <path d="M9.46834 5.30796C9.42082 5.26901 9.35778 5.25375 9.29796 5.26607C9.04178 5.31894 8.69807 5.32188 8.35557 5.27383C7.78941 5.19433 7.38213 5.00574 7.22419 4.85156C7.20412 4.8292 7.17895 4.811 7.15018 4.79895C7.05783 4.77045 6.9818 4.78691 6.92211 4.84834C6.76712 5.00307 6.35796 5.19366 5.78779 5.2737C5.44502 5.32175 5.10171 5.31853 4.84527 5.26593C4.78504 5.25349 4.7224 5.26888 4.67488 5.30783C4.62737 5.34677 4.59966 5.405 4.59966 5.46643V7.68823C4.59966 7.69037 4.59966 7.69224 4.59953 7.69425C4.59003 7.96836 4.57611 8.23484 4.60181 8.49476C4.62389 9.4496 5.40446 10.2163 6.9889 10.8373C6.99037 10.8373 6.99171 10.8381 6.99318 10.8388C7.01834 10.8492 7.04498 10.8543 7.07134 10.8543C7.08152 10.8543 7.09169 10.8536 7.10199 10.852C7.11832 10.8495 7.13465 10.845 7.15031 10.8386C7.15098 10.8382 7.15165 10.838 7.15232 10.8377C8.76125 10.208 9.54369 9.42792 9.54369 8.453V5.46656C9.54369 5.405 9.51599 5.34677 9.46834 5.30796Z" fill="#ACACAC"/>
</svg>