<svg xmlns="http://www.w3.org/2000/svg" width="20" height="20" viewBox="0 0 20 20" fill="none">
  <path d="M5.92127 0.519863C5.34013 -0.0623329 4.4269 -0.167699 3.72762 0.265484L1.6979 1.52249C1.11464 1.88436 0.457919 2.49637 0.234408 3.27336C-0.650075 6.34932 1.02415 10.595 4.31718 14.2225C4.70992 14.6546 5.3464 15.2911 5.77855 15.6838C9.40574 18.9759 13.6517 20.6502 16.7277 19.7655C17.5047 19.542 18.1167 18.8863 18.4786 18.302L19.7345 16.2723C20.1677 15.573 20.0623 14.6598 19.4801 14.0776L16.7564 11.3539C16.17 10.7675 15.2025 10.7675 14.616 11.3539L12.8588 13.1111C12.6512 13.3176 12.1627 13.373 11.9381 13.2186C11.225 12.7322 10.5193 12.1756 9.83707 11.5551C9.44326 11.1985 8.80144 10.5556 8.44488 10.1629C7.82437 9.47957 7.26877 8.77495 6.78128 8.06292C6.62802 7.83728 6.6823 7.34873 6.88878 7.14119L8.64603 5.38501C9.23248 4.79856 9.23248 3.83106 8.64603 3.24459L5.92127 0.519863ZM5.20815 1.23298L7.93184 3.95773C8.133 4.15889 8.133 4.46968 7.93184 4.67085L6.17565 6.42809C5.59452 7.00922 5.47318 7.93629 5.94788 8.63129C6.46196 9.38272 7.04628 10.1246 7.69769 10.842C8.09043 11.2741 8.72691 11.9106 9.15905 12.3033C9.87537 12.9536 10.6172 13.538 11.3687 14.0521C12.0637 14.5268 12.9907 14.4065 13.5719 13.8253L15.3291 12.0681C15.5303 11.8669 15.8411 11.8669 16.0422 12.0681L18.7659 14.7918C19.0203 15.0462 19.0661 15.4357 18.8766 15.7412L17.6186 17.7709C17.3929 18.1349 16.7394 18.7118 16.4478 18.7948C13.9625 19.5101 9.91271 18.0732 6.45663 14.9355C6.06282 14.5789 5.42101 13.9361 5.06338 13.5433C1.92556 10.0862 0.489883 6.03855 1.20513 3.55222C1.28815 3.25953 1.86398 2.606 2.22798 2.38036L4.25876 1.12336C4.5653 0.933904 4.95376 0.978603 5.20815 1.23298Z" fill="#067647"/>
</svg>