<svg xmlns="http://www.w3.org/2000/svg" width="14" height="14" viewBox="0 0 14 14" fill="none">
  <path d="M6.65463 13.272C5.36546 13.272 4.01329 13.2393 3.06246 13.1839C2.26796 13.1372 1.62221 12.7272 1.19579 11.9968C0.856876 11.4158 0.735535 10.766 0.735535 10.3507C0.726336 9.61991 0.729034 8.16327 0.731906 6.6124L0.732032 6.5444C0.733782 5.7149 0.735535 4.85682 0.735535 4.0629C0.735535 1.3434 2.4447 0.908828 3.19895 0.849911C3.3512 0.828328 4.44495 0.683072 5.84845 0.741989C6.08995 0.751906 6.27721 0.956076 6.26729 1.19758C6.25737 1.43908 6.05379 1.62632 5.8117 1.61641C4.41695 1.55807 3.32146 1.71674 3.31038 1.71849C3.29988 1.72024 3.28879 1.72141 3.27771 1.72199C2.51704 1.77683 1.60997 2.22774 1.60997 4.06349C1.60997 4.85799 1.60821 5.71666 1.60646 6.54674L1.60595 6.82107C1.60318 8.29023 1.60063 9.64782 1.60997 10.3454C1.60997 10.7462 1.86487 12.2377 3.11262 12.3107C4.9017 12.4145 8.12461 12.4378 9.5987 12.3112C9.60064 12.3112 9.60258 12.3111 9.60452 12.3109L9.61095 12.3101C9.62436 12.3095 10.9474 12.2191 11.099 10.9136C11.2513 9.604 11.2408 8.6485 11.2367 8.28858C11.2367 8.26188 11.2363 8.23835 11.236 8.21787C11.2358 8.20211 11.2355 8.18816 11.2355 8.17599C11.2355 7.93449 11.4315 7.73849 11.673 7.73849C11.9145 7.73849 12.1105 7.93449 12.1105 8.17599C12.1105 8.20165 12.1105 8.23607 12.1117 8.27865L12.1118 8.28392C12.1159 8.663 12.1267 9.65642 11.9682 11.0145C11.7804 12.6321 10.385 13.1396 9.66754 13.1827C8.94771 13.244 7.82653 13.2708 6.65403 13.2708L6.65463 13.272Z" fill="#161616"/>
  <path d="M9.3218 5.40573H9.29907C9.14157 5.39757 9.00039 5.30541 8.93039 5.16424C8.67781 4.65849 8.43166 4.40532 8.42874 4.40299C8.25783 4.23207 8.25783 3.95499 8.42874 3.78408C8.59966 3.61316 8.87674 3.61316 9.04765 3.78408C9.06865 3.80508 9.19174 3.93165 9.35507 4.16557C9.73482 3.67382 10.3292 3.01758 10.926 2.80583C11.1535 2.72533 11.4037 2.84432 11.4842 3.07182C11.5647 3.29932 11.4457 3.54957 11.2182 3.63007C10.7224 3.80565 10.0183 4.68765 9.69106 5.20215C9.61056 5.32873 9.47114 5.40515 9.3218 5.40515V5.40573Z" fill="#161616"/>
  <path fill-rule="evenodd" clip-rule="evenodd" d="M6.55682 4.0933C6.55682 5.94305 8.06301 7.44747 9.91392 7.44747C11.7648 7.44747 13.271 5.94305 13.271 4.0933C13.271 2.24355 11.7648 0.739136 9.91392 0.739136C8.06301 0.739136 6.55682 2.24355 6.55682 4.0933ZM7.43182 4.0933C7.43182 2.72655 8.54542 1.61414 9.91392 1.61414C11.2824 1.61414 12.396 2.72655 12.396 4.0933C12.396 5.46005 11.2824 6.57247 9.91392 6.57247C8.54542 6.57247 7.43182 5.46005 7.43182 4.0933Z" fill="#161616"/>
  <path d="M6.40501 8.0308H4.07168C3.83018 8.0308 3.63418 7.8348 3.63418 7.5933C3.63418 7.3518 3.83018 7.1558 4.07168 7.1558H6.40501C6.64651 7.1558 6.84251 7.3518 6.84251 7.5933C6.84251 7.8348 6.64651 8.0308 6.40501 8.0308Z" fill="#161616"/>
  <path d="M4.07168 10.3641H8.73834C8.97984 10.3641 9.17584 10.1681 9.17584 9.92664C9.17584 9.68514 8.97984 9.48914 8.73834 9.48914H4.07168C3.83018 9.48914 3.63418 9.68514 3.63418 9.92664C3.63418 10.1681 3.83018 10.3641 4.07168 10.3641Z" fill="#161616"/>
</svg>