<svg xmlns="http://www.w3.org/2000/svg" width="14" height="14" viewBox="0 0 14 14" fill="none">
  <path fill-rule="evenodd" clip-rule="evenodd" d="M3.64585 0.729126C2.03502 0.729126 0.729187 2.03496 0.729187 3.64579C0.729187 5.25662 2.03502 6.56246 3.64585 6.56246C5.25668 6.56246 6.56252 5.25662 6.56252 3.64579C6.56252 2.03496 5.25668 0.729126 3.64585 0.729126ZM1.60419 3.64579C1.60419 2.51821 2.51827 1.60413 3.64585 1.60413C4.77344 1.60413 5.68752 2.51821 5.68752 3.64579C5.68752 4.77337 4.77344 5.68746 3.64585 5.68746C2.51827 5.68746 1.60419 4.77337 1.60419 3.64579Z" fill="#161616"/>
  <path fill-rule="evenodd" clip-rule="evenodd" d="M10.3542 0.729126C8.74336 0.729126 7.43752 2.03496 7.43752 3.64579C7.43752 5.25662 8.74336 6.56246 10.3542 6.56246C11.965 6.56246 13.2709 5.25662 13.2709 3.64579C13.2709 2.03496 11.965 0.729126 10.3542 0.729126ZM8.31252 3.64579C8.31252 2.51821 9.22661 1.60413 10.3542 1.60413C11.4818 1.60413 12.3959 2.51821 12.3959 3.64579C12.3959 4.77337 11.4818 5.68746 10.3542 5.68746C9.22661 5.68746 8.31252 4.77337 8.31252 3.64579Z" fill="#161616"/>
  <path fill-rule="evenodd" clip-rule="evenodd" d="M7.43752 10.3541C7.43752 8.7433 8.74336 7.43746 10.3542 7.43746C11.965 7.43746 13.2709 8.7433 13.2709 10.3541C13.2709 11.965 11.965 13.2708 10.3542 13.2708C8.74336 13.2708 7.43752 11.965 7.43752 10.3541ZM10.3542 8.31246C9.22661 8.31246 8.31252 9.22654 8.31252 10.3541C8.31252 11.4817 9.22661 12.3958 10.3542 12.3958C11.4818 12.3958 12.3959 11.4817 12.3959 10.3541C12.3959 9.22654 11.4818 8.31246 10.3542 8.31246Z" fill="#161616"/>
  <path fill-rule="evenodd" clip-rule="evenodd" d="M3.64585 7.43746C2.03502 7.43746 0.729187 8.7433 0.729187 10.3541C0.729187 11.965 2.03502 13.2708 3.64585 13.2708C5.25668 13.2708 6.56252 11.965 6.56252 10.3541C6.56252 8.7433 5.25668 7.43746 3.64585 7.43746ZM1.60419 10.3541C1.60419 9.22654 2.51827 8.31246 3.64585 8.31246C4.77344 8.31246 5.68752 9.22654 5.68752 10.3541C5.68752 11.4817 4.77344 12.3958 3.64585 12.3958C2.51827 12.3958 1.60419 11.4817 1.60419 10.3541Z" fill="#161616"/>
</svg>