<svg xmlns="http://www.w3.org/2000/svg" width="18" height="18" viewBox="0 0 18 18" fill="none">
<path d="M13.6997 2.34937C12.1847 0.834107 10.1675 0 8.02376 0C5.88005 0 3.863 0.834062 2.34785 2.34937C-0.782615 5.48037 -0.782615 10.5719 2.34785 13.6987C3.91089 15.262 5.96719 16.0481 8.02376 16.0481C9.80511 16.0481 11.5866 15.4586 13.049 14.2839L16.7644 18L18 16.7642L14.2845 13.0481C16.8126 9.90413 16.6205 5.27088 13.6997 2.34937ZM3.58358 12.4672C1.13424 10.0175 1.13424 6.03485 3.58358 3.58509C4.77114 2.40169 6.34721 1.74667 8.02376 1.74667C9.70032 1.74667 11.2765 2.40169 12.464 3.58509C14.9133 6.03485 14.9133 10.0175 12.464 12.4672C10.0146 14.917 6.03269 14.917 3.58335 12.4672H3.58358Z" fill="white"/>
</svg>