<svg xmlns="http://www.w3.org/2000/svg" width="22" height="22" viewBox="0 0 22 22" fill="none">
  <path fill-rule="evenodd" clip-rule="evenodd" d="M11.0195 6.75C8.67232 6.75 6.76953 8.65279 6.76953 11C6.76953 13.3472 8.67232 15.25 11.0195 15.25C13.3667 15.25 15.2695 13.3472 15.2695 11C15.2695 8.65279 13.3667 6.75 11.0195 6.75ZM8.26953 11C8.26953 9.48122 9.50075 8.25 11.0195 8.25C12.5383 8.25 13.7695 9.48122 13.7695 11C13.7695 12.5188 12.5383 13.75 11.0195 13.75C9.50075 13.75 8.26953 12.5188 8.26953 11Z" fill="#161616"/>
  <path fill-rule="evenodd" clip-rule="evenodd" d="M11.6553 0.257815H10.4698C10.1531 0.257776 9.85552 0.257739 9.60609 0.286272C9.32815 0.318066 9.03587 0.391596 8.76314 0.588553C8.49054 0.785421 8.32874 1.0397 8.21094 1.29341C8.10514 1.52129 8.01112 1.80401 7.91098 2.10516L7.89985 2.13861L7.57209 3.11748C7.47737 3.35626 7.31165 3.55976 7.09775 3.7005L6.79536 3.87498C6.54225 4.00091 6.25403 4.03679 5.97801 3.97683L4.77769 3.63874L4.74242 3.62873C4.41441 3.53561 4.10768 3.44852 3.84354 3.40659C3.54979 3.35995 3.22843 3.354 2.89612 3.48915C2.56393 3.62426 2.33789 3.85276 2.15992 4.09105C1.99979 4.30544 1.8405 4.58196 1.67003 4.87789L1.14002 5.79771C0.98032 6.07478 0.830461 6.33478 0.729932 6.56693C0.617994 6.82544 0.53542 7.11728 0.570777 7.45386C0.60614 7.79046 0.747581 8.05876 0.910846 8.28833C1.05745 8.49447 1.25808 8.71754 1.47185 8.95521L1.49427 8.98013L1.49558 8.9816L2.50672 10.1121C2.6331 10.2833 2.76522 10.6555 2.76522 11.0077C2.76522 11.3602 2.63313 11.7322 2.50674 11.9035L1.49559 13.0339L1.49427 13.0354L1.47185 13.0603C1.25809 13.298 1.05745 13.5211 0.910849 13.7272C0.747585 13.9568 0.606142 14.2251 0.570779 14.5617C0.535419 14.8983 0.617997 15.1901 0.729934 15.4486C0.830464 15.6808 0.980322 15.9408 1.14002 16.2178L1.67003 17.1377C1.84049 17.4336 1.99978 17.7101 2.15991 17.9245C2.33788 18.1628 2.56393 18.3913 2.89613 18.5264C3.22844 18.6615 3.54981 18.6556 3.84357 18.6089C4.1077 18.567 4.41444 18.4799 4.74246 18.3868L4.77713 18.3769L5.97796 18.0387C6.25404 17.9787 6.54234 18.0146 6.79548 18.1406L7.0978 18.3151C7.31166 18.4558 7.47735 18.6593 7.57206 18.898L7.89985 19.877L7.91098 19.9105C8.01112 20.2116 8.10514 20.4943 8.21094 20.7222C8.32874 20.9759 8.49053 21.2302 8.76314 21.4271C9.03587 21.624 9.32815 21.6976 9.60609 21.7294C9.85553 21.7579 10.1531 21.7579 10.4698 21.7578H11.6552C11.9719 21.7579 12.2696 21.7579 12.519 21.7294C12.7969 21.6976 13.0892 21.624 13.3619 21.4271C13.6345 21.2302 13.7963 20.9759 13.9141 20.7222C14.0199 20.4944 14.1139 20.2117 14.2141 19.9105L14.2252 19.877L14.553 18.898C14.6477 18.6593 14.8134 18.4558 15.0273 18.3151L15.3296 18.1406C15.5827 18.0146 15.871 17.9787 16.1471 18.0387L17.348 18.3769L17.3826 18.3868C17.7106 18.4799 18.0174 18.567 18.2815 18.6089C18.5753 18.6556 18.8966 18.6615 19.2289 18.5264C19.5612 18.3913 19.7872 18.1628 19.9652 17.9245C20.1253 17.7101 20.2846 17.4336 20.4551 17.1377L20.985 16.2179C21.1447 15.9408 21.2946 15.6808 21.3951 15.4486C21.5071 15.1901 21.5897 14.8983 21.5543 14.5617C21.5189 14.2251 21.3775 13.9568 21.2142 13.7272C21.0676 13.5211 20.867 13.298 20.6533 13.0604L20.6308 13.0354L19.6183 11.9035C19.492 11.7323 19.3599 11.3602 19.3599 11.0077C19.3599 10.6555 19.492 10.2833 19.6184 10.112L20.6295 8.9816L20.6308 8.98013L20.6532 8.95521C20.867 8.71754 21.0676 8.49447 21.2142 8.28833C21.3775 8.05876 21.5189 7.79046 21.5543 7.45385C21.5897 7.11728 21.5071 6.82544 21.3951 6.56693C21.2946 6.33479 21.1448 6.0748 20.9851 5.79775L20.455 4.87785C20.2846 4.58194 20.1253 4.30543 19.9652 4.09105C19.7872 3.85276 19.5611 3.62426 19.229 3.48915C18.8967 3.354 18.5753 3.35995 18.2815 3.40659C18.0174 3.44852 17.7107 3.53561 17.3827 3.62874L17.348 3.63858L16.1471 3.97683C15.871 4.03679 15.5828 4.00091 15.3297 3.87498L15.0273 3.7005C14.8134 3.55976 14.6477 3.35625 14.553 3.11747L14.2248 2.13723L14.2141 2.10512C14.1139 1.80398 14.0199 1.52128 13.9141 1.29341C13.7963 1.0397 13.6345 0.785421 13.3619 0.588553C13.0892 0.391596 12.7969 0.318066 12.519 0.286272C12.2696 0.257739 11.972 0.257776 11.6553 0.257815ZM9.64052 1.80531L9.64134 1.8046C9.64134 1.8046 9.64636 1.80203 9.65423 1.79942C9.67124 1.79379 9.7072 1.78449 9.77656 1.77655C9.9304 1.75896 10.1407 1.75782 10.5052 1.75782H11.6199C11.9844 1.75782 12.1947 1.75896 12.3485 1.77655C12.4179 1.78449 12.4538 1.79379 12.4709 1.79942C12.4787 1.80203 12.4837 1.8046 12.4837 1.8046L12.4846 1.80531C12.4846 1.80531 12.488 1.80875 12.493 1.81549C12.5038 1.83007 12.5241 1.8615 12.5536 1.92509C12.619 2.06598 12.6867 2.26573 12.8019 2.61212L13.1415 3.62623L13.1473 3.64134C13.3574 4.1892 13.7372 4.65557 14.2312 4.97199L14.2458 4.98136L14.6136 5.19355L14.6298 5.2019C15.2061 5.49797 15.8683 5.58058 16.4996 5.435L16.5171 5.43097L17.7561 5.082C18.1328 4.97509 18.352 4.91419 18.5167 4.88803C18.5913 4.8762 18.6311 4.8758 18.6501 4.87695C18.6588 4.87748 18.6632 4.87844 18.6632 4.87844L18.6645 4.87894C18.6645 4.87894 18.6684 4.88141 18.6751 4.88718C18.6896 4.89973 18.7181 4.928 18.7634 4.98864C18.8634 5.12263 18.9783 5.31955 19.1741 5.65925L19.6677 6.51585C19.8513 6.83451 19.9564 7.01928 20.0187 7.16298C20.0467 7.22784 20.0568 7.26425 20.0605 7.28229C20.0622 7.29064 20.0625 7.29566 20.0625 7.29566L20.0625 7.29714L20.0622 7.29856C20.0622 7.29856 20.0609 7.30337 20.0575 7.31116C20.0501 7.32798 20.0328 7.36145 19.9918 7.419C19.9011 7.54652 19.7599 7.70526 19.5141 7.97865L19.5128 7.98012L18.4665 9.14993L18.4522 9.16794C18.0778 9.64195 17.8599 10.3703 17.8599 11.0077C17.8599 11.6452 18.0777 12.3735 18.4522 12.8476L18.4664 12.8656L19.5141 14.0369C19.7599 14.3103 19.9011 14.469 19.9918 14.5966C20.0328 14.6541 20.0501 14.6876 20.0575 14.7044C20.0609 14.7122 20.0622 14.717 20.0622 14.717L20.0625 14.7184L20.0625 14.7199C20.0625 14.7199 20.0622 14.7249 20.0605 14.7333C20.0568 14.7513 20.0467 14.7877 20.0187 14.8526C19.9564 14.9963 19.8513 15.1811 19.6677 15.4997L19.1741 16.3563C18.9784 16.696 18.8634 16.8929 18.7634 17.0269C18.7181 17.0875 18.6896 17.1158 18.6751 17.1284C18.6684 17.1341 18.6645 17.1366 18.6645 17.1366L18.6632 17.1371C18.6632 17.1371 18.6588 17.1381 18.6501 17.1386C18.6311 17.1397 18.5913 17.1393 18.5168 17.1275C18.352 17.1013 18.1328 17.0404 17.7561 16.9335L16.5172 16.5845L16.4997 16.5805C15.8683 16.4349 15.2059 16.5176 14.6296 16.8137L14.6133 16.8221L14.2456 17.0343L14.231 17.0437C13.7371 17.3601 13.3574 17.8264 13.1473 18.3742L13.1415 18.3893L12.8024 19.4021L12.8019 19.4035C12.6867 19.7499 12.619 19.9497 12.5536 20.0906C12.5241 20.1541 12.5038 20.1856 12.493 20.2001C12.4879 20.2069 12.4846 20.2103 12.4846 20.2103L12.4829 20.2115C12.4829 20.2115 12.4815 20.2122 12.4788 20.2133C12.4768 20.2141 12.4742 20.2151 12.4709 20.2162C12.4538 20.2218 12.4179 20.2311 12.3485 20.2391C12.1947 20.2567 11.9844 20.2578 11.6199 20.2578H10.5052C10.1407 20.2578 9.9304 20.2567 9.77656 20.2391C9.7072 20.2311 9.67124 20.2218 9.65422 20.2162C9.64636 20.2136 9.64134 20.211 9.64134 20.211L9.64052 20.2103C9.64052 20.2103 9.63713 20.2069 9.63211 20.2001C9.62125 20.1856 9.60097 20.1541 9.57145 20.0906C9.50603 19.9497 9.43839 19.7499 9.32315 19.4035L8.98357 18.3893L8.97777 18.3742C8.76767 17.8264 8.38802 17.3601 7.89408 17.0437L7.87945 17.0343L7.51175 16.8221L7.49551 16.8137C6.91919 16.5176 6.25679 16.4349 5.62541 16.5805L5.6079 16.5845L4.36902 16.9335C3.99228 17.0404 3.7731 17.1013 3.60833 17.1275C3.53381 17.1393 3.49393 17.1397 3.47496 17.1386C3.46624 17.1381 3.46183 17.1371 3.46183 17.1371L3.46062 17.1366C3.46062 17.1366 3.45668 17.1341 3.44999 17.1284C3.43544 17.1158 3.407 17.0875 3.36171 17.0269C3.26163 16.8929 3.14673 16.696 2.95099 16.3563L2.45742 15.4997C2.2738 15.1811 2.16865 14.9963 2.10643 14.8526C2.07834 14.7877 2.06827 14.7513 2.06457 14.7333C2.06286 14.7249 2.06254 14.7199 2.06254 14.7199L2.06257 14.7184L2.06284 14.717C2.06284 14.717 2.06419 14.7122 2.06759 14.7044C2.07494 14.6876 2.09232 14.6541 2.13325 14.5966C2.22394 14.469 2.36514 14.3103 2.61097 14.0369L2.61229 14.0354L3.65866 12.8656L3.67289 12.8476C4.04736 12.3735 4.26522 11.6452 4.26522 11.0077C4.26522 10.3703 4.04727 9.64195 3.67286 9.16794L3.65863 9.14993L2.61229 7.98011L2.61097 7.97865C2.36514 7.70526 2.22394 7.54652 2.13325 7.419C2.09232 7.36145 2.07493 7.32798 2.06759 7.31116C2.06419 7.30337 2.06284 7.29856 2.06284 7.29856L2.06257 7.29713L2.06254 7.29566C2.06254 7.29566 2.06286 7.29064 2.06457 7.28229C2.06827 7.26425 2.07834 7.22784 2.10642 7.16298C2.16865 7.01928 2.2738 6.83451 2.45742 6.51585L2.95101 5.65925C3.14675 5.31955 3.26165 5.12263 3.36172 4.98864C3.40701 4.928 3.43545 4.89973 3.44999 4.88718C3.45668 4.88141 3.46062 4.87894 3.46062 4.87894L3.46184 4.87844C3.46184 4.87844 3.46625 4.87748 3.47497 4.87695C3.49394 4.8758 3.53382 4.8762 3.60833 4.88803C3.7731 4.91419 3.99228 4.97509 4.36901 5.082L5.60796 5.43097L5.62547 5.435C6.25674 5.58058 6.919 5.49797 7.49525 5.2019L7.5115 5.19355L7.87925 4.98136L7.89389 4.97199C8.38793 4.65557 8.76766 4.1892 8.9778 3.64134L8.9836 3.62623L9.32315 2.61212C9.43839 2.26573 9.50603 2.06598 9.57145 1.92509C9.60097 1.8615 9.62125 1.83007 9.63211 1.81549C9.63713 1.80875 9.64052 1.80531 9.64052 1.80531Z" fill="#161616"/>
</svg>