<svg xmlns="http://www.w3.org/2000/svg" width="18" height="18" viewBox="0 0 18 18" fill="none">
  <path fill-rule="evenodd" clip-rule="evenodd" d="M8.27177 0C7.47468 0 6.81637 0.658366 6.81637 1.45546V1.99305C6.39262 2.12491 5.98182 2.29489 5.58878 2.50098L5.20933 2.12153C4.6455 1.55771 3.71431 1.55771 3.15049 2.12153L2.12147 3.15055C1.55767 3.71437 1.55767 4.64556 2.12147 5.20937L2.50094 5.58884C2.29485 5.98188 2.12489 6.39264 1.99299 6.81637H1.4554C0.658307 6.81637 0 7.47474 0 8.27181V9.72825C0 10.5253 0.658307 11.1837 1.4554 11.1837H1.99299C2.12485 11.6074 2.29485 12.0182 2.50094 12.4112L2.12147 12.7907C1.55767 13.3545 1.55767 14.2858 2.12147 14.8496L3.15049 15.8785C3.71431 16.4424 4.6455 16.4424 5.20933 15.8785L5.58878 15.4991C5.98182 15.7052 6.39262 15.8752 6.81637 16.0071V16.5446C6.81637 17.3417 7.47468 18.0001 8.27177 18.0001H9.72823C10.5253 18.0001 11.1836 17.3417 11.1836 16.5446V16.0071C11.6074 15.8752 12.0181 15.7052 12.4112 15.4991L12.7906 15.8785C13.3545 16.4424 14.2857 16.4424 14.8495 15.8785L15.8785 14.8496C16.4423 14.2858 16.4423 13.3545 15.8785 12.7907L15.499 12.4112C15.7051 12.0182 15.8751 11.6074 16.007 11.1837H16.5446C17.3417 11.1837 18 10.5253 18 9.72825V8.27181C18 7.47474 17.3417 6.81637 16.5446 6.81637H16.0102C15.8779 6.39198 15.7075 5.98062 15.5008 5.58706L15.8785 5.20937C16.4423 4.64554 16.4423 3.71437 15.8785 3.15055L14.8495 2.12153C14.2857 1.55771 13.3545 1.55771 12.7906 2.12153L12.413 2.4992C12.0194 2.29255 11.608 2.12211 11.1836 1.98987V1.45546C11.1836 0.658366 10.5253 0 9.72823 0H8.27177ZM8.27177 1.05885H9.72823C9.95772 1.05885 10.1248 1.22593 10.1248 1.45546V2.38963C10.1248 2.50766 10.1643 2.62231 10.2369 2.71536C10.3095 2.8084 10.4112 2.87451 10.5257 2.90319C11.1263 3.05346 11.7013 3.29181 12.2323 3.61028C12.3336 3.671 12.4522 3.69614 12.5693 3.68171C12.6865 3.66728 12.7955 3.61411 12.879 3.53064L13.5394 2.87026C13.7014 2.70818 13.9387 2.70818 14.1008 2.87026L15.1298 3.89924C15.2919 4.06131 15.2919 4.29864 15.1298 4.46072L14.4694 5.12108C14.386 5.20457 14.3328 5.31354 14.3184 5.43071C14.304 5.54787 14.3291 5.66649 14.3898 5.76772C14.7082 6.29867 14.9465 6.87378 15.0969 7.47438C15.1255 7.58888 15.1916 7.69052 15.2847 7.76315C15.3777 7.83578 15.4924 7.87523 15.6104 7.87525H16.5446C16.7741 7.87525 16.9412 8.04233 16.9412 8.27183V9.72827C16.9412 9.95774 16.7741 10.1249 16.5446 10.1249H15.6071C15.4891 10.1249 15.3744 10.1644 15.2814 10.237C15.1883 10.3097 15.1222 10.4113 15.0935 10.5259C14.9435 11.1259 14.7058 11.7005 14.388 12.231C14.3273 12.3323 14.3023 12.4508 14.3167 12.568C14.3312 12.6851 14.3844 12.794 14.4678 12.8774L15.1298 13.5394C15.2919 13.7015 15.2919 13.9388 15.1298 14.1009L14.1008 15.1299C13.9387 15.292 13.7014 15.292 13.5394 15.1299L12.8773 14.4679C12.7939 14.3844 12.685 14.3313 12.5679 14.3168C12.4508 14.3023 12.3322 14.3274 12.231 14.388C11.7004 14.7058 11.1258 14.9436 10.5258 15.0936C10.4113 15.1223 10.3096 15.1884 10.237 15.2814C10.1643 15.3745 10.1248 15.4891 10.1248 15.6072V16.5446C10.1248 16.7741 9.95776 16.9412 9.72823 16.9412H8.27177C8.0423 16.9412 7.87517 16.7741 7.87517 16.5446V15.6072C7.87516 15.4891 7.83569 15.3745 7.76304 15.2814C7.69039 15.1884 7.58873 15.1223 7.4742 15.0936C6.8742 14.9435 6.29961 14.7058 5.76905 14.388C5.66781 14.3274 5.54923 14.3023 5.43213 14.3168C5.31502 14.3313 5.2061 14.3844 5.12266 14.4679L4.46064 15.1299C4.29856 15.292 4.06125 15.292 3.89917 15.1299L2.8702 14.1009C2.70812 13.9388 2.70812 13.7015 2.8702 13.5394L3.53222 12.8774C3.61565 12.794 3.66882 12.6851 3.68329 12.568C3.69775 12.4508 3.67268 12.3323 3.61206 12.231C3.29425 11.7005 3.05652 11.1259 2.90651 10.5259C2.87787 10.4113 2.81176 10.3097 2.71871 10.237C2.62565 10.1644 2.51098 10.1249 2.39291 10.1249H1.45544C1.22597 10.1249 1.05885 9.9578 1.05885 9.72827V8.27183C1.05885 8.04236 1.22593 7.87525 1.45544 7.87525H2.39291C2.51098 7.87524 2.62565 7.83577 2.71871 7.76311C2.81176 7.69045 2.87787 7.58877 2.90651 7.47424C3.05658 6.87424 3.29425 6.29969 3.61206 5.76913C3.67269 5.66789 3.69776 5.54931 3.68329 5.4322C3.66883 5.31509 3.61566 5.20617 3.53222 5.12272L2.8702 4.46072C2.70812 4.29864 2.70812 4.06131 2.8702 3.89924L3.89917 2.87026C4.06125 2.70818 4.29856 2.70818 4.46064 2.87026L5.12266 3.53228C5.2061 3.61571 5.31502 3.66888 5.43213 3.68335C5.54923 3.69781 5.66781 3.67274 5.76905 3.61212C6.29961 3.29431 6.8742 3.05658 7.4742 2.90655C7.58873 2.8779 7.69039 2.81179 7.76304 2.71874C7.83569 2.62568 7.87516 2.51101 7.87517 2.39295V1.4555C7.87517 1.22601 8.04224 1.05885 8.27177 1.05885ZM8.99999 4.46974C6.50427 4.46974 4.46972 6.50431 4.46972 9.00005C4.46972 11.4958 6.50427 13.5303 8.99999 13.5303C11.4957 13.5303 13.5303 11.4958 13.5303 9.00005C13.5303 6.50431 11.4957 4.46974 8.99999 4.46974ZM8.99999 5.52857C10.9235 5.52857 12.4715 7.07655 12.4715 9.00005C12.4715 10.9236 10.9235 12.4715 8.99999 12.4715C7.07649 12.4715 5.52853 10.9236 5.52853 9.00005C5.52853 7.07655 7.07649 5.52857 8.99999 5.52857Z" fill="white"/>
</svg>