<svg xmlns="http://www.w3.org/2000/svg" width="21" height="21" viewBox="0 0 21 21" fill="none">
<path d="M10.5 0C7.71509 0 5.04473 1.10611 3.07495 3.07495C1.10613 5.04466 0 7.71509 0 10.5C0 13.2849 1.10611 15.9553 3.07495 17.9251C5.04466 19.8939 7.71509 21 10.5 21C13.2849 21 15.9553 19.8939 17.9251 17.9251C19.8939 15.9553 21 13.2849 21 10.5C21 7.71509 19.8939 5.04473 17.9251 3.07495C15.9553 1.10613 13.2849 0 10.5 0ZM10.5 20.046C7.96824 20.046 5.5405 19.0402 3.75056 17.2494C1.95984 15.4596 0.953962 13.0318 0.953962 10.5C0.953962 7.96824 1.95984 5.5405 3.75056 3.75056C5.54038 1.95984 7.96824 0.953962 10.5 0.953962C13.0318 0.953962 15.4595 1.95984 17.2494 3.75056C19.0402 5.54038 20.046 7.96824 20.046 10.5C20.046 13.0318 19.0402 15.4595 17.2494 17.2494C15.4596 19.0402 13.0318 20.046 10.5 20.046Z" fill="#1B8354"/>
<path d="M10.4999 3.3407C9.596 3.3407 8.72882 3.69956 8.08975 4.33853C7.45078 4.97751 7.09192 5.84467 7.09192 6.74864C7.09192 7.65261 7.45078 8.51968 8.08975 9.15875C8.72873 9.79772 9.59589 10.1566 10.4999 10.1566C11.4038 10.1566 12.2709 9.79772 12.91 9.15875C13.5489 8.51977 13.9078 7.65261 13.9078 6.74864C13.9078 5.84467 13.5489 4.9776 12.91 4.33853C12.271 3.69956 11.4038 3.3407 10.4999 3.3407ZM10.4999 9.20147C9.50741 9.20147 8.61338 8.60366 8.23305 7.68727C7.85362 6.77088 8.06392 5.71578 8.76552 5.01416C9.46713 4.31255 10.5222 4.10224 11.4386 4.4817C12.355 4.86204 12.9528 5.75605 12.9528 6.7485C12.9528 7.39909 12.6951 8.02286 12.2342 8.48284C11.7742 8.94372 11.1505 9.20147 10.4999 9.20147Z" fill="#1B8354"/>
<path d="M11.4549 10.8437H9.5452C8.53305 10.8437 7.56117 11.2464 6.84528 11.9623C6.1294 12.6783 5.72754 13.6492 5.72754 14.6622V16.7044C5.72754 16.9577 5.82777 17.2011 6.00676 17.3801C6.18576 17.5591 6.42826 17.6593 6.68152 17.6593H14.3187C14.572 17.6593 14.8145 17.5591 14.9935 17.3801C15.1725 17.2011 15.2727 16.9577 15.2727 16.7044V14.6622C15.2727 13.6492 14.8709 12.6782 14.155 11.9623C13.439 11.2464 12.467 10.8437 11.4549 10.8437ZM14.3187 16.7045H6.68146V14.6623C6.68146 13.0801 7.96388 11.7985 9.54518 11.7985H11.4549C13.0362 11.7985 14.3186 13.0801 14.3186 14.6623L14.3187 16.7045Z" fill="#1B8354"/>
</svg>