<svg xmlns="http://www.w3.org/2000/svg" width="14" height="14" viewBox="0 0 14 14" fill="none">
  <path fill-rule="evenodd" clip-rule="evenodd" d="M11.3444 7.00032C11.3444 5.80069 10.8579 4.7143 10.0718 3.92754C9.28576 3.14136 8.19958 2.6548 6.99944 2.6548C5.79995 2.6548 4.71369 3.14134 3.92702 3.92754C3.14094 4.71372 2.65444 5.80003 2.65444 7.00032C2.65444 8.19995 3.14092 9.28634 3.92702 10.0731C4.71311 10.8593 5.79929 11.3458 6.99944 11.3458C8.19892 11.3458 9.28518 10.8593 10.0718 10.0731C10.8579 9.28692 11.3444 8.20061 11.3444 7.00032ZM9.02741 2.10689C9.29966 2.2196 9.5987 2.26313 9.91113 2.233L10.5304 2.17273C10.7162 2.15488 10.8897 2.17441 11.0492 2.23132L11.0487 2.23244C11.2066 2.28879 11.3539 2.38421 11.485 2.51478C11.6172 2.64701 11.7126 2.79431 11.7684 2.95167C11.8253 3.11013 11.8454 3.28477 11.827 3.47002L11.7667 4.08936C11.736 4.40182 11.7801 4.70089 11.8928 4.97319C12.0061 5.24604 12.1868 5.48931 12.4295 5.68906L12.9104 6.0841C13.0532 6.20127 13.1615 6.33853 13.234 6.49198C13.3054 6.64375 13.3422 6.81448 13.3422 7.00085C13.3422 7.18721 13.3054 7.35851 13.234 7.50972C13.1615 7.66316 13.0532 7.80043 12.9104 7.9176L12.4295 8.31264C12.1868 8.51238 12.0055 8.75567 11.8928 9.02851C11.7801 9.30079 11.7366 9.59987 11.7667 9.91233L11.827 10.5317C11.8454 10.7175 11.8253 10.891 11.7684 11.0506L11.7673 11.05C11.7109 11.2079 11.6155 11.3552 11.485 11.4864C11.3539 11.6175 11.2071 11.7123 11.0487 11.7687L11.0258 11.7782C10.8735 11.829 10.7072 11.8463 10.5304 11.829L9.91112 11.7687C9.59869 11.738 9.29966 11.7821 9.0274 11.8948C8.75458 12.0081 8.51134 12.1889 8.31161 12.4321L7.91662 12.9125C7.79946 13.0554 7.66222 13.1636 7.50879 13.2362C7.35704 13.3076 7.18632 13.3444 6.99998 13.3444C6.81364 13.3444 6.64237 13.3076 6.49117 13.2362C6.33831 13.1636 6.2005 13.0554 6.08334 12.9125L5.68835 12.4321C5.48807 12.1894 5.24537 12.0081 4.97256 11.8948C4.70031 11.7821 4.40127 11.7386 4.08884 11.7687L3.46958 11.829C3.28379 11.8474 3.11029 11.8273 2.95073 11.7704L2.95129 11.7693C2.7934 11.7129 2.64612 11.618 2.515 11.4869C2.38278 11.3547 2.28737 11.2074 2.23159 11.0506C2.17468 10.8921 2.1546 10.7175 2.17301 10.5322L2.23326 9.91289C2.26394 9.60043 2.21987 9.30136 2.10717 9.02907C1.99392 8.75621 1.81316 8.51294 1.57047 8.31319L1.08956 7.91815C0.946736 7.80098 0.838504 7.66373 0.765978 7.51027C0.694567 7.35851 0.657746 7.18777 0.657746 7.0014C0.657746 6.81504 0.694567 6.64375 0.765978 6.49254C0.838505 6.33965 0.946736 6.20183 1.08956 6.08465L1.57047 5.68962C1.81316 5.48931 1.99449 5.24658 2.10717 4.97374C2.21987 4.70146 2.26339 4.40238 2.23326 4.08992L2.17301 3.47058C2.15459 3.28477 2.17468 3.11125 2.23159 2.95167L2.2327 2.95222C2.28905 2.79376 2.38445 2.64646 2.51501 2.51533C2.64611 2.38421 2.79284 2.28936 2.95129 2.233C2.95966 2.23021 2.96691 2.22686 2.97416 2.22351C3.12647 2.17273 3.29273 2.15544 3.46959 2.17273L4.08885 2.233C4.40128 2.26368 4.70031 2.2196 4.97257 2.10689C5.24539 1.99363 5.48864 1.81284 5.68836 1.57013L6.08335 1.08916C6.20051 0.946317 6.33775 0.838073 6.49118 0.765539C6.64293 0.694118 6.81365 0.657293 6.99999 0.657293C7.18633 0.657293 7.35761 0.694118 7.5088 0.765539C7.66166 0.838074 7.79947 0.946317 7.91663 1.08916L8.31162 1.57013C8.5119 1.81284 8.7546 1.99419 9.02741 2.10745V2.10689ZM9.27568 1.50205C9.10274 1.43063 8.94596 1.3129 8.81596 1.15444L8.42097 0.673464C8.24077 0.454175 8.02765 0.286238 7.78775 0.172965C7.54673 0.0591387 7.28173 0 6.99944 0C6.71769 0 6.45269 0.0585874 6.21112 0.172965C5.97122 0.286792 5.7581 0.454189 5.5779 0.673464L5.18291 1.15444C5.05292 1.3129 4.89615 1.43007 4.72319 1.50205C4.54856 1.57459 4.35498 1.60193 4.14967 1.5824L3.5304 1.52214C3.26038 1.49592 3.00151 1.52493 2.75939 1.60639C2.74934 1.60918 2.73986 1.61197 2.73038 1.61532C2.47988 1.70515 2.25113 1.85134 2.05085 2.05165C1.85057 2.25196 1.70439 2.48073 1.61457 2.73126L1.61568 2.73182C1.52586 2.98235 1.4935 3.25129 1.5214 3.5314L1.58165 4.15074C1.60118 4.35607 1.57328 4.55025 1.50131 4.72433C1.4299 4.89729 1.31219 5.05409 1.15374 5.1841L0.673383 5.57914C0.454121 5.75936 0.286203 5.97251 0.172945 6.21244C0.0591317 6.45348 0 6.71852 0 7.00084C0 7.28263 0.0585804 7.54821 0.172945 7.78925C0.286758 8.02918 0.454135 8.24233 0.673383 8.42255L1.15374 8.81759C1.31219 8.94759 1.4299 9.10438 1.50131 9.27679C1.57328 9.45144 1.60118 9.64505 1.58165 9.85038L1.5214 10.4697C1.49406 10.7504 1.52586 11.0193 1.61624 11.2699C1.70662 11.5221 1.85223 11.7508 2.05141 11.9495C2.25169 12.1498 2.48044 12.296 2.73093 12.3858L2.73149 12.3847C2.98199 12.4745 3.2509 12.5069 3.53153 12.479L4.1508 12.4187C4.35611 12.3986 4.55026 12.4265 4.72432 12.4985C4.89726 12.5699 5.05404 12.6877 5.18404 12.8461L5.57903 13.3265C5.75923 13.5458 5.97235 13.7138 6.21225 13.827C6.45327 13.9409 6.71827 14 7.00056 14C7.28231 14 7.54786 13.9414 7.78888 13.827C8.02878 13.7132 8.2419 13.5458 8.4221 13.3265L8.81709 12.8461C8.94708 12.6877 9.10385 12.5699 9.27681 12.4985C9.45144 12.4265 9.64502 12.3986 9.85033 12.4187L10.4696 12.479C10.7396 12.5058 10.9985 12.4762 11.2406 12.3947C11.2507 12.3919 11.2601 12.3891 11.2696 12.3858C11.5201 12.296 11.7489 12.1498 11.9491 11.9495C12.1494 11.7492 12.2956 11.5204 12.3854 11.2699L12.3843 11.2693C12.4741 11.0188 12.5059 10.7498 12.4786 10.4692L12.4183 9.84982C12.3988 9.64449 12.4267 9.45087 12.4987 9.27623C12.5701 9.10327 12.6878 8.94647 12.8463 8.81646L13.3266 8.42142C13.5459 8.2412 13.7138 8.02805 13.8271 7.78812C13.9409 7.54708 14 7.28204 14 6.99972C14 6.71793 13.9414 6.45291 13.8271 6.21131C13.7132 5.97138 13.5459 5.75823 13.3266 5.57801L12.8463 5.18297C12.6878 5.05296 12.5701 4.89618 12.4987 4.7232C12.4267 4.5491 12.3988 4.35494 12.4183 4.14961L12.4786 3.53027C12.5059 3.24961 12.4741 2.98066 12.3838 2.73013C12.2934 2.47793 12.1478 2.24916 11.9486 2.05053C11.7483 1.85022 11.5196 1.70402 11.2691 1.61419L11.2685 1.61531C11.018 1.52547 10.7491 1.49367 10.4685 1.52101L9.8492 1.58127C9.64389 1.60136 9.44974 1.57346 9.27568 1.50092L9.27568 1.50205ZM6.44935 7.83273L8.80922 5.47258C8.93754 5.34425 9.14453 5.34425 9.2734 5.47258C9.40171 5.60092 9.40171 5.80793 9.2734 5.93626L6.68144 8.52852C6.55312 8.65686 6.34558 8.65686 6.21726 8.52852L4.72605 7.03713C4.59773 6.9088 4.59773 6.70123 4.72605 6.5729C4.85436 6.44456 5.06191 6.44456 5.19022 6.5729L6.44941 7.83223L6.44935 7.83273Z" fill="#14573A"/>
</svg>