<svg xmlns="http://www.w3.org/2000/svg" width="18" height="22" viewBox="0 0 18 22" fill="none">
  <path fill-rule="evenodd" clip-rule="evenodd" d="M6.75 3C6.75 1.48122 7.98122 0.25 9.5 0.25C11.0188 0.25 12.25 1.48122 12.25 3C12.25 4.51878 11.0188 5.75 9.5 5.75C7.98122 5.75 6.75 4.51878 6.75 3ZM9.5 1.75C8.80964 1.75 8.25 2.30964 8.25 3C8.25 3.69036 8.80964 4.25 9.5 4.25C10.1904 4.25 10.75 3.69036 10.75 3C10.75 2.30964 10.1904 1.75 9.5 1.75Z" fill="#161616"/>
  <path d="M9.50002 6.25C9.91423 6.25 10.25 6.58579 10.25 7V8.75H13.3889C13.8031 8.75 14.1389 9.08579 14.1389 9.5C14.1389 9.91421 13.8031 10.25 13.3889 10.25H10.25V13.5C10.25 13.5991 10.2501 13.6794 10.2512 13.7488C10.3206 13.75 10.4009 13.75 10.5 13.75L12.8482 13.75C12.9897 13.7499 13.1498 13.7499 13.2896 13.7652C13.4562 13.7835 13.6615 13.829 13.8623 13.9649C14.063 14.1008 14.1815 14.2746 14.2604 14.4225C14.3265 14.5466 14.386 14.6952 14.4384 14.8266L14.9449 16.0928C14.9702 16.1559 14.9903 16.2062 15.0082 16.2494C15.0549 16.25 15.1091 16.25 15.1771 16.25H16.5C16.9142 16.25 17.25 16.5858 17.25 17C17.25 17.4142 16.9142 17.75 16.5 17.75L15.1518 17.75C15.0104 17.7501 14.8502 17.7501 14.7104 17.7348C14.5438 17.7165 14.3385 17.671 14.1377 17.5351C13.937 17.3992 13.8185 17.2254 13.7397 17.0775C13.6735 16.9534 13.6141 16.8047 13.5616 16.6734L13.0551 15.4072C13.0299 15.3441 13.0097 15.2938 12.9918 15.2506C12.9451 15.25 12.8909 15.25 12.823 15.25L10.4656 15.25C10.2605 15.2501 10.0387 15.2502 9.85145 15.225C9.63212 15.1955 9.35193 15.1197 9.11613 14.8839C8.88033 14.6481 8.8045 14.3679 8.77501 14.1486C8.74984 13.9614 8.74993 13.7396 8.75001 13.5344L8.75002 7C8.75002 6.58579 9.0858 6.25 9.50002 6.25Z" fill="#161616"/>
  <path d="M6.6815 9.73987C7.09005 9.67164 7.36594 9.28513 7.29771 8.87658C7.22948 8.46802 6.84297 8.19213 6.43442 8.26036C3.21074 8.79872 0.75 11.5896 0.75 14.9583C0.75 18.7126 3.80646 21.7501 7.56955 21.7501C9.8504 21.7501 11.8706 20.6341 13.1079 18.922C13.3505 18.5863 13.275 18.1175 12.9393 17.8748C12.6036 17.6322 12.1347 17.7077 11.8921 18.0434C10.9258 19.3806 9.35029 20.2501 7.56955 20.2501C4.6284 20.2501 2.25 17.8777 2.25 14.9583C2.25 12.3397 4.16396 10.1603 6.6815 9.73987Z" fill="#161616"/>
</svg>