<svg xmlns="http://www.w3.org/2000/svg" width="15" height="14" viewBox="0 0 15 14" fill="none">
  <path fill-rule="evenodd" clip-rule="evenodd" d="M0.744956 0.472969C0.834546 0.297753 1.01475 0.1875 1.21154 0.1875H4.70513C4.8734 0.1875 5.03143 0.268305 5.12996 0.404719L8.57882 5.18007L13.4179 0.340987C13.6226 0.136338 13.9544 0.136338 14.159 0.340987C14.3637 0.545637 14.3637 0.87744 14.159 1.08209L9.20039 6.04071L14.2133 12.9816C14.3285 13.1412 14.3446 13.3518 14.255 13.527C14.1655 13.7022 13.9853 13.8125 13.7885 13.8125H10.2949C10.1266 13.8125 9.96856 13.7317 9.87004 13.5953L6.42118 8.81992L1.58209 13.659C1.37744 13.8637 1.04564 13.8637 0.840989 13.659C0.63634 13.4544 0.63634 13.1226 0.840989 12.9179L5.79961 7.95929L0.786714 1.01836C0.671494 0.858823 0.655367 0.648185 0.744956 0.472969ZM2.23643 1.23558L10.5628 12.7644H12.7636L4.43718 1.23558H2.23643Z" fill="white"/>
</svg>