<svg xmlns="http://www.w3.org/2000/svg" width="17" height="16" viewBox="0 0 17 16" fill="none">
  <path fill-rule="evenodd" clip-rule="evenodd" d="M9.92367 5.79851L9.86067 5.76379C9.22561 5.41383 8.70619 5.1276 8.27859 4.95052C7.8445 4.77076 7.39932 4.65615 6.94611 4.77494C6.68864 4.84242 6.44694 4.9622 6.2404 5.12918C5.86119 5.43576 5.72715 5.87473 5.66834 6.31709C5.61146 6.74497 5.61148 7.29845 5.6115 7.95885V8.04119C5.61148 8.7016 5.61146 9.25508 5.66834 9.68296C5.72715 10.1253 5.86119 10.5643 6.2404 10.8709C6.44694 11.0379 6.68864 11.1576 6.94611 11.2251C7.39932 11.3439 7.8445 11.2293 8.27859 11.0495C8.7062 10.8725 9.2256 10.5862 9.86068 10.2363L9.92368 10.2015C10.5047 9.88137 10.9847 9.61693 11.33 9.37188C11.6761 9.12638 12.0044 8.82214 12.113 8.37847C12.1741 8.12939 12.174 7.87066 12.113 7.62159C12.0044 7.17791 11.6761 6.87368 11.33 6.62817C10.9847 6.38313 10.5047 6.11868 9.92367 5.79851ZM7.23904 5.89259C7.32166 5.87094 7.47516 5.86837 7.83653 6.01802C8.19744 6.16748 8.66035 6.42157 9.33414 6.79286C9.95516 7.13507 10.3763 7.36818 10.6614 7.57048C10.9522 7.7768 10.9852 7.87348 10.9908 7.89647C11.0076 7.96495 11.0076 8.0351 10.9908 8.10359C10.9852 8.12657 10.9522 8.22325 10.6614 8.42957C10.3763 8.63188 9.95516 8.86498 9.33414 9.20719C8.66035 9.57848 8.19744 9.83258 7.83653 9.98203C7.47516 10.1317 7.32166 10.1291 7.23904 10.1075C7.13355 10.0798 7.04096 10.0323 6.9668 9.97237C6.93161 9.94392 6.85846 9.86762 6.81367 9.5307C6.76813 9.18816 6.76691 8.71248 6.76691 8.00003C6.76691 7.28758 6.76813 6.81189 6.81367 6.46935C6.85846 6.13244 6.93161 6.05613 6.9668 6.02768C7.04096 5.96772 7.13355 5.92024 7.23904 5.89259Z" fill="white"/>
  <path fill-rule="evenodd" clip-rule="evenodd" d="M8.5 0.875C7.06837 0.875 5.69294 1.01639 4.41507 1.27688L4.31703 1.29684C2.85765 1.59389 1.88526 1.79181 1.04732 2.86917C0.218373 3.93496 0.218836 5.17095 0.219555 7.08522V8.91478C0.218836 10.829 0.218373 12.065 1.04732 13.1308C1.88526 14.2082 2.85765 14.4061 4.31703 14.7032L4.41507 14.7231C5.69294 14.9836 7.06837 15.125 8.5 15.125C9.93163 15.125 11.3071 14.9836 12.5849 14.7231L12.683 14.7032C14.1424 14.4061 15.1147 14.2082 15.9527 13.1308C16.7816 12.065 16.7812 10.8291 16.7805 8.91478V7.08522C16.7812 5.17095 16.7816 3.93496 15.9527 2.86917C15.1147 1.79181 14.1424 1.59389 12.683 1.29684L12.5849 1.27688C11.3071 1.01639 9.93163 0.875 8.5 0.875ZM4.64585 2.409C5.84569 2.16442 7.14374 2.03041 8.5 2.03041C9.85627 2.03041 11.1543 2.16442 12.3542 2.409C13.9348 2.73121 14.4852 2.8643 15.0407 3.57852C15.5991 4.29655 15.625 5.10273 15.625 7.25781V8.74219C15.625 10.8973 15.5991 11.7035 15.0407 12.4215C14.4852 13.1357 13.9348 13.2688 12.3542 13.591C11.1543 13.8356 9.85627 13.9696 8.5 13.9696C7.14374 13.9696 5.84569 13.8356 4.64585 13.591C3.06518 13.2688 2.51484 13.1357 1.95934 12.4215C1.40088 11.7035 1.375 10.8973 1.375 8.74219V7.25781C1.375 5.10273 1.40088 4.29655 1.95934 3.57852C2.51484 2.8643 3.06518 2.73121 4.64585 2.409Z" fill="white"/>
</svg>